<svg xmlns="http://www.w3.org/2000/svg" xmlns:xlink="http://www.w3.org/1999/xlink" viewBox="0 0 538.91 496.76"><defs><style>.cls-1{fill:#8d1455;}.cls-2{fill:#330a48;}.cls-3{fill:url(#linear-gradient);}</style><linearGradient id="linear-gradient" x1="244.62" y1="334.85" x2="304.16" y2="430.12" gradientUnits="userSpaceOnUse"><stop offset="0.29" stop-color="#330a48"/><stop offset="0.31" stop-color="#360a48"/><stop offset="0.62" stop-color="#65104f" stop-opacity="0.98"/><stop offset="0.86" stop-color="#821353" stop-opacity="0.96"/><stop offset="1" stop-color="#8d1455" stop-opacity="0.96"/></linearGradient></defs><title>Asset 1</title><g id="Layer_2" data-name="Layer 2"><g id="Layer_1-2" data-name="Layer 1"><path class="cls-1" d="M314.09,25.84c.52-1.31,1.62-1.31,2-2.07-.42-.43-1,.29-1.5-.3a5.41,5.41,0,0,1,3-1.6c1.51-.4,3-.78,4.58-1a9.94,9.94,0,0,0,6.13-3.46c-.53-.34-1,.49-1.62,0a12.59,12.59,0,0,1,9.95-3.69,20.26,20.26,0,0,1,3.5.37c2.11.57,3.15,2.24,3.74,4.54.74-1,1.33-1.8,1.89-2.61,1.62-2.3,3.9-3.84,6-5.61,3.4-2.84,7.44-2.7,11.34-3.13a40.59,40.59,0,0,1,17,1.64,20.32,20.32,0,0,1,6.57,3.53,36.78,36.78,0,0,1,5.66,5.35c2.18,2.67,4,5.54,2.72,9.27a3.28,3.28,0,0,0,.16,1.83c.58,2.47,1.14,5,1.49,7.47a14.73,14.73,0,0,1-1,7.8,4.22,4.22,0,0,0,.35,4.18c1.15,1.81,2.34,3.6,3.5,5.41,1.65,2.6,1.32,4-1.39,5.46a2,2,0,0,0-1.18,2.33c.2,1.3-.6,2.34-.86,3.45-.5,2.15-1.87,3.81-2.52,5.81a3.14,3.14,0,0,0,0,1.18c.28,3.39-2,5.61-5.37,5.35A59.1,59.1,0,0,1,380.9,76a6.93,6.93,0,0,0-6.4,1.86,25.11,25.11,0,0,0-6.73,10.32,1.9,1.9,0,0,0,.21,1.69c.87,1.19.26,2.29-.31,3.42a8.34,8.34,0,0,0-.49,6.2c1.56,6,4.71,11.23,7.47,16.65,2.59,5.08,5.7,9.89,8.14,15.05.73,1.55,1.34,3-.23,4.47-.6.56,0,1.17.23,1.7a124.55,124.55,0,0,1,6.36,16.41,67.65,67.65,0,0,1,1.47,9c.08.48-.05,1.13.54,1.31s.79-.38,1.08-.69c6.43-6.93,14.51-11.44,22.84-15.54a138.9,138.9,0,0,0,21.38-13,8.68,8.68,0,0,0,3.6-7.13,50.49,50.49,0,0,1,1-8.57,5.77,5.77,0,0,1,2.59-4.06,5.1,5.1,0,0,0,1.3-1.15c2.38-3.07,4.45-3.5,7.61-1.33a1.48,1.48,0,0,0,1.93.07,2.55,2.55,0,0,1,2.88.11c1.34.84,3.08,1.42,3.9,2.62a57.24,57.24,0,0,1,4.1,6.63c.74,1.49.52,3.6,1.32,5.32a3,3,0,0,1-.48,2.9,3.37,3.37,0,0,0-.48,2.88c.48,2,0,2.92-1.86,3.8-3.79,1.76-7.57,3.55-11.42,5.18-4.58,1.92-8.23,5.15-11.87,8.34a501,501,0,0,1-42.08,33.24c-2.29,1.61-4.41,3.42-6.57,5.19-2.55,2.09-5.59,1.91-8.22-.12a27.17,27.17,0,0,1-6.73-8c-1.47-2.48-2.86-5-4.27-7.51-.32-.58-.62-1.11-1.42-.82-8.53,3.11-16.14,7.45-19.43,16.54a91.3,91.3,0,0,0-4.53,15.64c-1.24,7.33-4.28,14.13-7.42,20.87-.39.84.16,1.31.55,1.84a27,27,0,0,0,7,6.36,142.45,142.45,0,0,0,20.73,11.46c11.31,5,21.37,12,30.87,19.78,9.32,7.67,15.52,17.56,19.52,28.82a25.26,25.26,0,0,1,.68,15.34,13.26,13.26,0,0,1-5.67,8c-4,2.57-8.15,4.86-12.36,7-2,1.05-4.1,1.29-6-.34-.86-.73-1.76-.45-2.71-.13-7.83,2.72-15.1,6.6-22.27,10.69-11.92,6.8-23.7,13.86-35.18,21.38A44.75,44.75,0,0,0,325,364.42c-.63.77-1.19,1.4.33,1.88s.87,1.69.57,2.59c-.49,1.43-.42,2.19,1.42,2.07a2.2,2.2,0,0,1,.63,4.35,1.71,1.71,0,0,0-1.42,1.78,7.49,7.49,0,0,1-1,3.21,2.64,2.64,0,0,0-.31,2.42,3.22,3.22,0,0,1,0,2.1,2.75,2.75,0,0,0,.2,2.34.8.8,0,0,1,.15.48c-.52,2.49.18,5.09-.6,7.54-.28.89-.32,1.49.4,2.05a2.51,2.51,0,0,1,.75,2.9,6.31,6.31,0,0,0,0,4.66,20.29,20.29,0,0,1,1.87,8.71,7,7,0,0,1-2.79,5.66,4.76,4.76,0,0,1-5.41.07,29.21,29.21,0,0,1-6.85-6.42c-5.32-6.61-10.07-13.62-14.7-20.72-.82-1.27-1.52-2.51-1-4.1a2.61,2.61,0,0,0-.12-1.67,22.88,22.88,0,0,0-4.21-7.68,3.75,3.75,0,0,0-3.05-1.55,5.66,5.66,0,0,1-4.66-2.36,85.11,85.11,0,0,1-6.24-8.86c-1.83-3-1.24-5.15,2-6.3a14.53,14.53,0,0,0,6.46-5,27.89,27.89,0,0,1,5.36-4.64c2.61-2,5.75-1.82,8.71-2.41,1.42-.29,2.84-.64,4.28-1-.23-.71-.75-.73-1.12-.94-.55-.32-.93-.7-.63-1.36a1.1,1.1,0,0,1,1.56-.57,4.27,4.27,0,0,1,2.51,2.82c.35,1.2.85,1.17,1.81.7a77.55,77.55,0,0,0,16.09-10.88c6.07-5.12,11.63-10.78,17.48-16.12a68.27,68.27,0,0,0,6-6.36c6.26-7.36,14.08-12.47,22.83-16.23.71-.31,2-.18,1.84-1.35s-.53-2.42-2-2.91a47.15,47.15,0,0,0-10.68-2.58c-13.25-1.18-24.8-6.89-36.09-13.33-2.56-1.46-5-3.12-7.55-4.65a13.33,13.33,0,0,0-2-1c-2.2-.87-2.63-.71-3.28,1.43a126.87,126.87,0,0,1-8.38,19.78c-5.51,10.95-11.05,21.88-16.25,33a165.46,165.46,0,0,1-12,21,31.16,31.16,0,0,1-8.95,8.43c-1.84,1.22-3.7,2.4-5.55,3.59-2.31,1.5-3.71,1.43-5.84-.29s-2.22-1.61-4.34,0a266.05,266.05,0,0,0-32.49,29.17c-6.31,6.61-13,12.91-18.51,20.25a22.23,22.23,0,0,0-3.4,6.16,1.16,1.16,0,0,0,.63,1.55c2,1.28,2,1.43.78,3.9,1.22-.72,2.28-.86,2.95.35a2.46,2.46,0,0,1-.62,3.23,3.22,3.22,0,0,0-1,3.5,9.33,9.33,0,0,1-.48,5.81c-.19.42-.44.92-1,.82s-.45-.71-.44-1.13c0-.73.12-1.45.19-2.19-1.41.69-1.81,1.88-.91,3.37.41.67.42,1-.06,1.59a2.54,2.54,0,0,0-.46,2.4,2.61,2.61,0,0,1-.2,2.28c-.61.9.79,1.21.58,1.86-.41,1.32.61,1,1.21,1.21s1.48.35,1.72,1c.58,1.57,2,1.83,3.24,2.41,3.18,1.45,6.11,3.22,7.72,6.54a5.69,5.69,0,0,1,.62,2.44c0,2.25-.48,2.82-2.59,3.54-3.18,1.09-6.42.45-9.58.22-5.9-.42-11.85-1-17.48-3-7.15-2.5-11.79-7.79-15-14.5a3.72,3.72,0,0,1,0-2.91c.89-2.29-1.13-7.87-3.26-9.23a1.66,1.66,0,0,0-.61-.27c-3.8-.55-6.18-3.06-8.32-5.93a49.68,49.68,0,0,1-3.76-5.63,2.59,2.59,0,0,1,.8-3.7,4.83,4.83,0,0,1,1.74-1c2.74-.62,4.41-2.62,6.11-4.59.61-.71,1.19-1.45,1.76-2.2a15.46,15.46,0,0,1,9.29-5.92c2.41-.48,4.75-1.28,7.2-2-.21-.85-1-.81-1.43-1.12s-.65-.49-.53-1a.67.67,0,0,1,.59-.53c.59-.06.33.43.44.69a.89.89,0,0,0,1,.51.93.93,0,0,1,1.19.65c.64,1.54,1.27.93,2.21.16,9.29-7.66,15.37-17.82,21.8-27.72,2.4-3.7,4.08-7.8,6.27-11.61A62.88,62.88,0,0,1,229,337.38c1.26-.86,2.09-1.52,1.12-3.19-.79-1.38,0-2.34,1.4-2.86,4.12-1.54,8.21-3.21,12.38-4.6a12,12,0,0,0,7.41-6.71c2.42-5.29,3.53-11,5-16.53,2.16-8.43,3.26-17.07,4.74-25.63a123.37,123.37,0,0,1,4.8-18.12,46.3,46.3,0,0,0,1.55-21.58c-1.83-13.1,2.42-24.25,12.25-33.17,1.87-1.71,3.93-3.21,5.93-4.78.91-.71.93-1.19-.07-1.9-2.54-1.78-2.61-3.28-.36-5.46,5.18-5,10.43-10,14.61-16,5.73-8.18,9.05-17.13,9.19-27.23a149.57,149.57,0,0,1,1.79-19.81c.15-1.06.16-2.14.21-3.21.07-1.34-.56-1.43-1.56-.85a14.49,14.49,0,0,0-2.82,2.42c-1.73,1.71-2,1.77-4,.52a1.42,1.42,0,0,0-1.71.12,126.66,126.66,0,0,1-21.17,10.23,9.07,9.07,0,0,0-6.05,7.51c-1.79,10.66-6,20.57-9.68,30.64a170.89,170.89,0,0,0-7.13,27.29,113.25,113.25,0,0,1-4.15,16.58,27.17,27.17,0,0,0-1.32,5.46c-.37,2.94-1.61,4.3-4.52,4.54a23.83,23.83,0,0,0-7.16,1.84c-1.25.51-2.43.6-3.21-.84-.25-.47-.89-.49-1.25-.78-1.62-1.29-3.24-3-3.47-4.86-.5-4,.07-7.87,3.52-10.87,2.15-1.88,3.92-4.19,6.08-6.12a13.46,13.46,0,0,0,4.59-10.14c.4-10.49.16-21,1.61-31.44,1.13-8.17,2.78-16.24,4.19-24.36.54-3.12,1.23-6.2,1.8-9.31a8.86,8.86,0,0,1,4.07-6q13.13-8.89,26.21-17.82a5,5,0,0,0,2.43-3.09,3,3,0,0,1,1.74-2,12.42,12.42,0,0,0,1.71-.74c8.15-5.41,17.71-7.9,26.16-12.72,4.85-2.76,8.53-6.83,12.58-10.49a54.74,54.74,0,0,1,8.88-7c.86-.5,1.69-.94,2.68-.35a.84.84,0,0,0,1.18-.28c2.71-3.22,5.4-6.5,5.85-10.87s.09-8.68-4-12c.35,1.49,1.26,2.5,1.23,3.82-2.91-4.34-5.8-8.68-5.19-14.36l-.47-.15-3.16,5.58c-.6-.78.13-1.22,0-1.79-.56.09-.75.59-1.07.93l-9.92,10.48c-.26.28-.51.63-1,.66-.48-.45.38-.94-.26-1.61-3.47,3.57-8.35,5.6-10.56,10.75-.51-1,.14-1.55,0-2.33a16.21,16.21,0,0,0-2.4,2.76c-1.63,1.87-3.11,4.16-5.51,4.88-3.07.91-5.15,3-7.53,4.85-.72.55-.73.56-1.24-.13-.37-.49-.57,0-.77.13-4.14,2.41-8.81,2.94-13.39,3.77a8.18,8.18,0,0,1-2.35-.17c-.3,0-.67-.06-.79-.49-.45-1.71-.45-1.7-2-1a4.86,4.86,0,0,1-.84.22,20.8,20.8,0,0,1,4.1-4.9l-3.73.63c1.27-1.54.13-1.45-.72-1.62s-2.17.43-2.41-.48,1.1-1.28,1.81-1.8c1.4-1,2.87-2,4.34-3-.49-.49-1,.17-1.56-.26.26-.81,1.52-1.27.8-2.62-.28-.51,1.25-1.1,2.14-1.17A23,23,0,0,0,285,62c-2.23,0-4.46-.38-6.69.24-.44.12-1,.42-1.3-.27-.43-.86.34-1,.74-1.23,1.94-1.3,3.91-2.55,5.87-3.81a7.39,7.39,0,0,1,5-1,29.22,29.22,0,0,0,3.5,0l-5.21-3.11c2.62-1.59,5.34-2,8.3-2.71a14.82,14.82,0,0,0-8,.55c-1.09.32-2,.52-2.8-.68a17.79,17.79,0,0,1,11.08-4.48c.84,0,2.2.42,2.36-.65s-1.31-.89-2.05-1.29c-.37-.2-.88-.2-1.13-.94L304,42c-.12-.75-1.27-.44-1.09-1.13s1-.68,1.55-.85c1.59-.43,3.39-.23,4.89-1.56-1.38-.75-2.5.22-3.95.28,1.46-1.43,3.21-2,4.44-3.38-1.2-.11-2.36.29-3.66-.07,1.28-1.23,2.82-1.11,4.19-1.22a9.3,9.3,0,0,0,6.57-3.74c-3.44,1.26-7.18-.33-10.76,1.73a2.82,2.82,0,0,1,2.49-2.53c4.28-.84,7.73-3.3,11.2-5.86Z"/><path class="cls-2" d="M221.16,63.75s6.23-10,5.71-16.24a21.69,21.69,0,0,0-2.51-7.86,27.76,27.76,0,0,1-1.64-21.21c1.33-4.34,4-7.77,6.76-11.14.18-.22.37-.53.6-.58,2.26-.53,3.85-2.28,5.92-3.13,1.18-.48,2-1.48,3.13-2,.92-.4,1.75-1.06,2.86-.48a1.35,1.35,0,0,0,1-.07c4.72-1.77,9.57-.84,14.39-.74A19.57,19.57,0,0,1,266,2.9c3,1.56,6.17,3.32,8.24,6a10.12,10.12,0,0,0,3.84,3.42,2.58,2.58,0,0,0,3.15-.25c.23-.23.52-.55.85-.23.16.16.29.62.19.76-.79,1.08.46,2.15-.09,3.33-.33.68,1,.17,1.33.92-.75.67-1.47,1.31-.94,2.53.28.65-.42,1.19-1,1.39-3.16,1.13-4.27,3.11-3.19,6.44a5.76,5.76,0,0,1-.79,4.57,4,4,0,0,0,.08,4.19c1.09,2,2.19,4,3.23,6,1.69,3.24,1.07,4.77-2.39,5.8A1.82,1.82,0,0,0,277,49.63c-.07,1.24-1,2.32-1.23,3.38-.59,2.37-2.85,4.13-2.17,7,.53,2.22-1.08,4-3.35,4.57a15,15,0,0,1-5.38.28,18.09,18.09,0,0,0-2.2-.16c-1.91,0-3.08.2-3.92.82-.35.25-.83.65-1.95,3.47-1.26,3.19-2.09,6.26-2.09,6.26h0c0,.12-.09.24-.13.38a1.9,1.9,0,0,0,0,1,1.53,1.53,0,0,0,.3.59c4,5.28,6,11.48,7.85,17.71,2.66,8.9,4.64,17.92,4.6,27.28,0,5.7-1,11.07-4.26,15.93-1.82,2.7-1.65,2.92,1.49,3.2,10.89,1,21.73,2.56,32.71,2.63a8.58,8.58,0,0,0,7.21-3.58,28.16,28.16,0,0,1,2.2-2.57,5.79,5.79,0,0,1,4.65-2,25.18,25.18,0,0,0,8.82-1.34,10.15,10.15,0,0,1,7.58.74c1.83.83,2.41,1.91,2.09,3.94a1.72,1.72,0,0,0,.76,1.88,10.74,10.74,0,0,1,2.48,2.28,2.34,2.34,0,0,1-.1,3.36c-.69.69-.85,1.12,0,1.87,2.27,2,2.22,3.54-.22,5.32-1.17.86-1.71,1.43-.74,2.91s.05,3.3-1.92,3.88a19,19,0,0,1-8.28.21,20.12,20.12,0,0,0-5.85,0,10.18,10.18,0,0,1-5.85-.46c-3.46-1.66-6.94-1.24-10.45-.59q-13.16,2.44-26.28,5a86.84,86.84,0,0,1-18.69,1.59c-.86,0-1.67,0-2.2.89-3.07,5.15-6.93,9.75-10,14.91-4.65,7.8-7.2,16.27-8.75,25.12-.06.38-.24.83,0,1.15,1.18,1.34.94,3,.91,4.52-.11,6.4,2.4,12,5.42,17.41,4.63,8.29,10.75,15.48,16.86,22.68,1.64,1.94,3.2,3.94,4.86,5.87.74.85.83,1.55-.05,2.29-1.16,1-1,1.82,0,2.94,7.06,8.38,11.9,18,16.44,27.94a72.78,72.78,0,0,1,6,18.62c1,6.07.32,11.58-3.27,16.78s-5.18,11.24-6.85,17.24c-4.67,16.81-9.38,33.61-13,50.7a4.12,4.12,0,0,0,.22,3.12,3.22,3.22,0,0,1,0,2.63,76.94,76.94,0,0,0-3,15.27,25,25,0,0,0,.37,6.06c.21,1.2.17,2.91,2.28,2.53a.49.49,0,0,1,.42.25c1,2,3.52,2.35,4.69,4.28a4,4,0,0,0,3.13,1.8,2,2,0,0,1,1.84,1.5,4,4,0,0,0,3.43,2.87,2.52,2.52,0,0,1,1.95,1.64A3.65,3.65,0,0,0,280,440.2a1.69,1.69,0,0,1,1.81,1.47,3,3,0,0,0,1.55,2.09,30.48,30.48,0,0,0,8.88,4.5,21.71,21.71,0,0,1,3.6,1.46c3.58,1.95,4.15,5.18,3.51,8.55-.23,1.22-1.19,1.66-2.29,2-6.66,1.88-13.32,1.71-20.1.57-10.28-1.74-20.17-4.93-30.21-7.58-4.7-1.24-9.44-2.28-14.15-3.46a25.08,25.08,0,0,1-9.27-4c-2.38-1.78-2.92-3.39-1.91-6.17a48.73,48.73,0,0,1,6.36-11.16c2-2.81,3.53-5.61,2.65-9.25a2.31,2.31,0,0,1,1.57-2.75,3,3,0,0,0,1.76-2.41c.82-5.79.69-11.65,1.21-17.46,0-.39,0-.89.2-1.14,1.76-2.06,1.43-4.6,1.48-7,.14-6.37.44-12.74.06-19.12-.21-3.49-.57-7-.55-10.47a42.48,42.48,0,0,1,5.26-20.8,73.19,73.19,0,0,1,9.79-13.15c4.12-4.58,4.78-7-.94-11.79-7.85-6.65-16.42-12.35-24.78-18.34a10.92,10.92,0,0,1-1.48-1.13c-.9-.92-1.72-1.22-2.91-.36s-2.26.21-3.13-.74c-3-3.29-6-6.62-9-9.89s-5.78-6.81-9.2-9.71c-1.8-1.53-2-1.47-3.37.45-4.84,6.89-9.7,13.77-14.51,20.67-.67,1-1.29,1.53-2.45.77a1.87,1.87,0,0,0-2.08.16,106.08,106.08,0,0,0-17.45,12.49c-7.32,6.27-14.57,12.66-22.94,17.58a17.25,17.25,0,0,0-1.66,1.18c-4.47,3.59-9.71,3.66-15,2.66a7.7,7.7,0,0,0-7.59,2.19C107,336.66,100,340.28,93.08,344c-8.84,4.77-17.59,9.76-26.16,15-6.49,4-12.65,8.51-18.94,12.8a5.34,5.34,0,0,0-1.39,1.24c-2.6,3.72-6.51,6-9.71,9.11-.65.61-1.23,1.1-.89,2.13.2.61-.22,1.21-.47,1.77a38.07,38.07,0,0,1-5,8.62A5.84,5.84,0,0,0,29,397.94a3.16,3.16,0,0,1-1,2,3.94,3.94,0,0,0-1.75,4.25,1.92,1.92,0,0,1-1,2.16,3.51,3.51,0,0,0-1.68,3.33,5.94,5.94,0,0,1-.69,2.73,31.24,31.24,0,0,0-3.57,14.82c.08,2.91-1,4.59-3.86,5.62a4.11,4.11,0,0,1-5-2c-3.83-7.1-8.09-14-9.47-22.18A56.47,56.47,0,0,1,.58,398.1c.12-5.68.7-11.38-.4-17.05a20.53,20.53,0,0,1,.28-6.58c.15-1.06,1.17-1.44,2.06-1.83,1.59-.69,3.32-.63,5-.92A20.37,20.37,0,0,0,17.85,367a2.87,2.87,0,0,1,2.9-.92,1.58,1.58,0,0,0,1.54-.53c3-2.61,6.53-4.62,9.14-7.75a7.18,7.18,0,0,1,4-2,4.53,4.53,0,0,0,2.45-1.34c9.27-10,19.33-19.16,28.39-29.33A82.22,82.22,0,0,1,78.77,314c5.88-4.36,13.17-5.67,20.13-7.3,3.79-.9,7.64-1.5,11.49-2.13a16.34,16.34,0,0,0,11.38-7.69,61.15,61.15,0,0,0,4.84-8.89,47.68,47.68,0,0,1,3.71-6.47c.66-1,.35-1.52-.92-1.57a5.05,5.05,0,0,1-.67-.06c-2.2-.35-2.55-1.23-1.26-3,3.36-4.57,7.62-8.34,11.19-12.71,4.87-6,9.28-12.24,13.64-18.57,2.67-3.89,3.62-8.34,4-12.95.54-6.07,1.11-12.14,1.75-18.2.85-8,5.25-13.77,11.47-18.41A2.71,2.71,0,0,0,171,194a3.33,3.33,0,0,1,.71-1.51c3.13-4.56,5.17-9.65,7.35-14.67.63-1.47.13-2.45-1.06-3.35-11.23-8.49-19.14-19.87-26.81-31.38A71.24,71.24,0,0,1,145,130.3a15.39,15.39,0,0,1-1-7.31,9.67,9.67,0,0,1,4.26-7.2,150.87,150.87,0,0,0,16.47-13.93c1.75-1.69,3.12-2.67,2.39-4.9s.71-3.77,2.16-5.16a64.33,64.33,0,0,1,7.86-5.88,132.49,132.49,0,0,0,13.78-11.24c5.08-4.64,11.17-6.87,17.91-7.54a5.7,5.7,0,0,1,1.43.06c2.1.31,4,.07,5.53-1.62a3.91,3.91,0,0,1,4-1.25c.66.18,1.44-.58,1.44-.58h0m-31.75,73.52q-.6-7.59-1.18-15.17c-.12-1.49-.87-1.68-2.06-1.12a16.46,16.46,0,0,0-3,1.86,61.32,61.32,0,0,1-12.73,8c-1,.43-1,.82-.31,1.57a43,43,0,0,1,6,8.78c2.15,4,4.26,8.09,6.39,12.13.52,1,1,2,1.6,3,.4.71.81.77,1.11-.1C187.32,150,189.46,143.91,189.41,137.27Z"/><path class="cls-3" d="M393,242.15c-.14,1.59,98.13-2.51,103.89,21.61,13.53,56.65-491.94,230.6-491,233h0c2.72,2.2,550-164.27,532.59-234.36C530.66,230.73,393.18,240.28,393,242.15Z"/></g></g></svg>