<svg id="OBJECTS" xmlns="http://www.w3.org/2000/svg" xmlns:xlink="http://www.w3.org/1999/xlink" viewBox="0 0 750 500"><defs><style>.cls-1{fill:none;}.cls-2{clip-path:url(#clip-path);}.cls-3{fill:#fff;}.cls-4{fill:#083928;}</style><clipPath id="clip-path"><rect class="cls-1" width="750" height="500"/></clipPath></defs><title>Mesa de trabajo 1 copy</title><g class="cls-2"><path class="cls-3" d="M696.51,141.69c-11.33,3-22.57,6.57-33.69,10.31A110.89,110.89,0,0,0,655,139.33c-4.66-6.51-9.89-12.61-14.68-19,3.45-1.2,6.87-2.42,10.31-3.61,7.34-2.55,14.73-5.07,22.18-7.46,6.2,10.83,14.83,20,22.08,30.08C695.42,140.11,696,140.9,696.51,141.69Z"/><path class="cls-3" d="M640.29,120.32c-11.62,4.1-23.28,8.21-35,12-6.28-8-12.89-15.78-17.74-24.77a75,75,0,0,1-3.81-8.18c13.55-3.75,27-8.2,40.36-12.82a86,86,0,0,0,7.85,21A102.28,102.28,0,0,0,640.29,120.32Z"/><path class="cls-3" d="M532.54,69.65c-4.49.39-9,.65-13.52.74A161.41,161.41,0,0,1,488,68,137.65,137.65,0,0,1,490.48,29a160.48,160.48,0,0,0,28.54,2c5.24-.1,10.47-.42,15.66-.93A136.73,136.73,0,0,0,532.54,69.65Z"/><path class="cls-3" d="M602.58-24.67a141.89,141.89,0,0,0-21.45,45.81A283.74,283.74,0,0,1,534.68,30a143.37,143.37,0,0,1,15.17-41.45C567.65-14.35,585.2-19.12,602.58-24.67Z"/><path class="cls-4" d="M543.34,107.91A212.2,212.2,0,0,1,519,109.85a128.47,128.47,0,0,1-19.64-1.17c-.21-.37-.43-.75-.63-1.13-6.13-11.33-9.24-24.24-10.54-37.18-.08-.78-.15-1.57-.21-2.35a161.41,161.41,0,0,0,31,2.37c4.53-.09,9-.35,13.52-.74,0,.25.05.48.07.72,1.29,12.94,4.4,25.85,10.53,37.18C543.2,107.67,543.27,107.79,543.34,107.91Z"/><path class="cls-4" d="M549.85-11.46A143.37,143.37,0,0,0,534.68,30c-5.19.51-10.42.83-15.66.93a160.48,160.48,0,0,1-28.54-2,144.58,144.58,0,0,1,13.61-37.9c5,.37,10,.5,14.93.39A219.14,219.14,0,0,0,549.85-11.46Z"/><path class="cls-3" d="M708.87-58.73a233.94,233.94,0,0,0-29.13,47.4c-9.8,3-19.52,6.3-29.14,9.65C644,.62,637.38,3,630.75,5.28a134.59,134.59,0,0,1,36.09-52C680.69-51.26,694.72-55.46,708.87-58.73Z"/><path class="cls-4" d="M735.1,133.79a301.17,301.17,0,0,0-38.59,7.9c-.55-.79-1.09-1.58-1.65-2.36-7.25-10.12-15.88-19.25-22.08-30.08,13-4.16,26.05-7.92,39.25-10.83a76.9,76.9,0,0,0,4.19,9.13C721.38,117.09,728.49,125.25,735.1,133.79Z"/><path class="cls-4" d="M799.61,17.54a141.11,141.11,0,0,0-5.77,38.32c-3.45-.63-6.92-1.17-10.39-1.6a178,178,0,0,0-33.5-.87,159.36,159.36,0,0,1,8.65-39.84,174,174,0,0,1,24.85,1.25C788.86,15.46,794.24,16.41,799.61,17.54Z"/><path class="cls-4" d="M662.82,152c-4.1,1.36-8.16,2.77-12.22,4.18-8.79,3.06-17.6,6.21-26.44,9.26a97.77,97.77,0,0,0-13.59-26.11c-1.7-2.38-3.49-4.71-5.29-7,11.73-3.79,23.39-7.9,35-12,4.79,6.4,10,12.5,14.68,19A110.89,110.89,0,0,1,662.82,152Z"/><path class="cls-4" d="M624.09,86.55c-13.37,4.62-26.81,9.07-40.36,12.82a106.12,106.12,0,0,1-6.72-29q-.43-4.26-.57-8.53c15-3.84,29.85-8.65,44.62-13.71a133.24,133.24,0,0,0,.35,22.24A121.07,121.07,0,0,0,624.09,86.55Z"/><path class="cls-4" d="M666.84-46.68a134.59,134.59,0,0,0-36.09,52h0C614.34,11,597.83,16.64,581.13,21.14a141.89,141.89,0,0,1,21.45-45.81c16.12-5.13,32.1-10.93,48-16.48Q658.67-44,666.84-46.68Z"/><path class="cls-3" d="M798.57,417.89c-5-1-10.07-1.9-15.12-2.52a178.67,178.67,0,0,0-31.17-1,219.38,219.38,0,0,1-12.4-26.49,120.17,120.17,0,0,1-5-17.26,193.18,193.18,0,0,1,44.18-1.09,119.37,119.37,0,0,0,5.17,18.35C788.14,398.3,793.34,408.1,798.57,417.89Z"/><path class="cls-3" d="M604.36,499.64a415,415,0,0,1-43.23,11.7l-1,.2A283,283,0,0,0,556,467a373.55,373.55,0,0,0,42.18-10.75C601.68,469.06,603.7,484.25,604.36,499.64Z"/><path class="cls-3" d="M647.81,530.07h0c-15.13,5.3-30.32,10.77-45.62,15.64a249.45,249.45,0,0,0,2.18-46.07l1.32-.43c14.53-4.7,28.94-9.89,43.32-14.92A156.12,156.12,0,0,1,647.81,530.07Z"/><path class="cls-4" d="M602.18,545.71a396,396,0,0,1-44.37,11.67,307.66,307.66,0,0,0,2.32-45.84l1-.2a415,415,0,0,0,43.23-11.7A249.45,249.45,0,0,1,602.18,545.71Z"/><path class="cls-3" d="M686.87,471.93c-12.21,3.57-24.32,7.63-36.27,11.8l-1.6.56a152.3,152.3,0,0,0-10.75-40.71c-.11-.26-.21-.52-.32-.77l12.67-4.46c7.18-2.5,14.4-5,21.68-7.3,2.08,4.12,4.06,8.27,5.85,12.53A149.81,149.81,0,0,1,686.87,471.93Z"/><path class="cls-4" d="M689.17,516.63c-13,3.72-25.94,8-38.67,12.48-.93.32-1.84.65-2.77,1a155.59,155.59,0,0,0,1.18-45.55l1.59-.56c11.89-4.15,23.94-8.19,36.09-11.74A155.32,155.32,0,0,1,689.17,516.63Z"/><path class="cls-4" d="M752.28,414.35a247.71,247.71,0,0,0-41.23,5.93c-5.65-10.59-11.4-21.12-15.57-32.42-1-2.75-1.94-5.54-2.74-8.35a310.23,310.23,0,0,1,42.19-8.91,120.17,120.17,0,0,0,5,17.26A219.38,219.38,0,0,0,752.28,414.35Z"/><path class="cls-4" d="M778.8,505.61a194.24,194.24,0,0,0-44.43,1.19A155.45,155.45,0,0,0,729,462.22a204,204,0,0,1,43.71-2.46A156.22,156.22,0,0,1,778.8,505.61Z"/><path class="cls-3" d="M467.44,463.51c-19.6-5.77-38.78-14.82-54.25-26.79-7.75-16.42-17.66-31.78-24-48.86a122.56,122.56,0,0,1-6.06-23.29c15.56,13.4,35.61,26.33,56.26,36.81,6.8,14.2,15.13,27.65,21.26,42.2A152.27,152.27,0,0,1,467.44,463.51Z"/><path class="cls-4" d="M472.39,510.4a129.7,129.7,0,0,1-45-22.44,152.78,152.78,0,0,0-11.14-44.38c-1-2.31-2-4.59-3.08-6.86,15.47,12,34.65,21,54.25,26.79A156.81,156.81,0,0,1,472.39,510.4Z"/><path class="cls-3" d="M472.39,510.4c-.25,5.63-4.54,24.44-8.94,42.52a125.38,125.38,0,0,1-37.94-21.12,154.88,154.88,0,0,0,1.9-43.84A129.7,129.7,0,0,0,472.39,510.4Z"/><path class="cls-3" d="M426.2,352.66a314,314,0,0,1-43.05-30.3,144.17,144.17,0,0,1,8.27-30.73,278.22,278.22,0,0,0,37.13,24.89A140.19,140.19,0,0,0,426.2,352.66Z"/><path class="cls-3" d="M456.13,256.1c-1.39,1.8-2.75,3.61-4.06,5.44a136.82,136.82,0,0,0-14,24.73A108.35,108.35,0,0,1,408.8,260c5.4-7.36,11.51-14.44,17.35-21.65A123.15,123.15,0,0,0,456.13,256.1Z"/><path class="cls-4" d="M464.32-17a142.61,142.61,0,0,0-15,33.26c-11.17-5.44-25-1.82-34.79-7.68a18.29,18.29,0,0,1-4.05-3.28c4-7.59,12.05-24.94,18.33-34.58a43.13,43.13,0,0,1,3.08-4.23q2.64,1.88,5.39,3.6c.53.34,1.06.67,1.59,1A131.8,131.8,0,0,0,464.32-17Z"/><path class="cls-4" d="M448.26,92.93s-27.62.73-43.51-8.74c-.44-2.68-.8-5.37-1.06-8.07a131.65,131.65,0,0,1,.53-30.35h0c1.33-.12,38.43,6,39,7.17a.08.08,0,0,1,0,0s0,3.72-.06,5.2a.28.28,0,0,0,0,.13c0,.1,0,.2,0,.29a2.44,2.44,0,0,0,0,.27c0,.22,0,.44,0,.66,0,.6,0,1.19,0,1.79,0,.12,0,.23,0,.34,0,.94.08,1.89.13,2.83s.12,2,.19,3,.16,2,.26,2.94A113.33,113.33,0,0,0,448.26,92.93Z"/><path class="cls-4" d="M494.44,187.4A148.78,148.78,0,0,1,451.36,175c-.85-.39-1.7-.8-2.54-1.21a75.73,75.73,0,0,0-3.94-13.06A102.25,102.25,0,0,0,433,139.32c-7.62-10.64-10-11.62-11.3-15.13,0,0,29.5,14.87,59.95,21.51C489.4,158.29,494.81,172.73,494.44,187.4Z"/><path class="cls-4" d="M481,224.5c-7.4,10.91-16.7,21-24.86,31.6a123.15,123.15,0,0,1-30-17.75c7.05-8.7,13.69-17.59,18.19-27.36A141.2,141.2,0,0,0,481,224.5Z"/><path class="cls-4" d="M438,286.27a144.19,144.19,0,0,0-9.48,30.25,278.22,278.22,0,0,1-37.13-24.89,138.42,138.42,0,0,1,16.25-30.09c.38-.52.74-1,1.13-1.54A108.35,108.35,0,0,0,438,286.27Z"/><path class="cls-4" d="M439.41,401.38c-20.65-10.48-40.7-23.41-56.26-36.81a136.11,136.11,0,0,1,0-42.21,314,314,0,0,0,43.05,30.3,125.46,125.46,0,0,0,7.41,35.2C435.31,392.48,437.28,397,439.41,401.38Z"/><path class="cls-3" d="M494.8,422.55c-16.95-3.94-36.41-11.52-55.39-21.17-2.13-4.42-4.1-8.9-5.8-13.52a125.46,125.46,0,0,1-7.41-35.2,320,320,0,0,0,48.16,23.51A117.12,117.12,0,0,0,478,387.86C482.48,400,488.77,411.2,494.8,422.55Z"/><path class="cls-3" d="M476.48,302.36a143.29,143.29,0,0,0-6,33.86,299.05,299.05,0,0,1-41.95-19.7A144.19,144.19,0,0,1,438,286.27,137.31,137.31,0,0,0,476.48,302.36Z"/><path class="cls-3" d="M522.84,228.14c-8.25,11.37-18.23,22-26.37,33.4-1.1,1.52-2.15,3.07-3.18,4.64a150,150,0,0,1-37.16-10.08c8.16-10.56,17.46-20.69,24.86-31.6a160.38,160.38,0,0,0,38,3.75C520.29,228.23,521.57,228.19,522.84,228.14Z"/><path class="cls-3" d="M494.44,187.4c0,1.79-.18,3.57-.39,5.36-1.46,11.78-6.51,22.07-13.06,31.74A141.2,141.2,0,0,1,444.34,211a61.77,61.77,0,0,0,5.31-18.23,58.87,58.87,0,0,0-.83-18.92A147.44,147.44,0,0,0,494.44,187.4Z"/><path class="cls-3" d="M538.83,187.41c-6.57.76-13.17,1.24-19.81,1.37a159.91,159.91,0,0,1-24.58-1.38c.37-14.67-5-29.11-12.81-41.7A160.32,160.32,0,0,0,519,149.32q4.47-.09,8.92-.39C534.68,160.73,539.18,174,538.83,187.41Z"/><path class="cls-3" d="M499.38,108.68a169.25,169.25,0,0,1-51.12-15.75,113.33,113.33,0,0,1-4.44-22.56c-.1-1-.18-2-.26-2.94s-.14-2-.19-3-.1-1.89-.13-2.83c0-.11,0-.22,0-.34,0-.6,0-1.19,0-1.79,0-.22,0-.44,0-.66V58.3a.28.28,0,0,1,0-.13c0-1.74,0-3.47.06-5.2,0-.15,0-.3,0-.45A143.07,143.07,0,0,0,488,68c.07.78.14,1.58.22,2.36,1.3,12.94,4.41,25.84,10.54,37.18C499,107.93,499.17,108.31,499.38,108.68Z"/><path class="cls-3" d="M511,516.28a157.61,157.61,0,0,1-38.65-5.88,156.81,156.81,0,0,0-4.95-46.89,180,180,0,0,0,43.4,7.37C512.11,484.58,512,500.46,511,516.28Z"/><path class="cls-4" d="M560.13,511.54A229.85,229.85,0,0,1,519,516.33c-.87,0-1.75,0-2.62,0-1.79,0-3.58,0-5.36-.07,1-15.82,1.07-31.7-.2-45.4Q515,471,519,471a225.39,225.39,0,0,0,37-4A283,283,0,0,1,560.13,511.54Z"/><path class="cls-4" d="M510.84,470.88a180,180,0,0,1-43.4-7.37,152.27,152.27,0,0,0-6.77-19.93c-6.13-14.55-14.46-28-21.26-42.2,19,9.65,38.44,17.23,55.39,21.17,3.66,6.9,7.22,13.83,10.26,21C508,450.58,509.85,460.05,510.84,470.88Z"/><path class="cls-3" d="M556,467a225.39,225.39,0,0,1-37,4q-4,.09-8.18-.08c-1-10.83-2.83-20.3-5.78-27.3-3-7.2-6.6-14.13-10.26-21a99.54,99.54,0,0,0,24.22,3,209.64,209.64,0,0,0,21-1.51c3.37,6.4,6.65,12.84,9.45,19.51A115.48,115.48,0,0,1,556,467Z"/><path class="cls-4" d="M474.36,376.17a320,320,0,0,1-48.16-23.51,140.19,140.19,0,0,1,2.35-36.14,299.05,299.05,0,0,0,41.95,19.7A131.54,131.54,0,0,0,474.36,376.17Z"/><path class="cls-3" d="M521.75,386l-2.73.07c-12.1.26-27.76-3.51-44.66-9.94a131.54,131.54,0,0,1-3.86-39.95c16.22,6,31.63,9.84,44.23,10.37A126.72,126.72,0,0,0,521.75,386Z"/><path class="cls-4" d="M493.29,266.18a141,141,0,0,0-16.81,36.18A137.31,137.31,0,0,1,438,286.27a136.82,136.82,0,0,1,14-24.73c1.31-1.83,2.67-3.64,4.06-5.44A150,150,0,0,0,493.29,266.18Z"/><path class="cls-3" d="M537.48,266.5a141.14,141.14,0,0,0-18,40.67H519a160.63,160.63,0,0,1-42.54-4.82,141,141,0,0,1,16.81-36.18A160.22,160.22,0,0,0,519,267.72C525.21,267.6,531.36,267.17,537.48,266.5Z"/><path class="cls-4" d="M538.83,187.41a53.44,53.44,0,0,1-.38,5.35c-1.65,13.27-7.85,24.64-15.61,35.38-1.27.05-2.55.09-3.82.11a160.38,160.38,0,0,1-38-3.75c6.55-9.67,11.6-20,13.06-31.74.21-1.79.35-3.57.39-5.36A159.91,159.91,0,0,0,519,188.78C525.66,188.65,532.26,188.17,538.83,187.41Z"/><path class="cls-3" d="M582.84,192.76c-1.28,10.27-5.28,19.42-10.63,28a251,251,0,0,1-49.37,7.38c7.76-10.74,14-22.11,15.61-35.38a53.44,53.44,0,0,0,.38-5.35,294.31,294.31,0,0,0,43.94-8.85A57.17,57.17,0,0,1,582.84,192.76Z"/><path class="cls-4" d="M527.94,148.93c-3,.2-5.94.32-8.92.39a160.86,160.86,0,0,1-37.39-3.62c-1.35-2.19-2.77-4.31-4.25-6.38-7.62-10.64-16.78-20.2-23-31.77a82.6,82.6,0,0,1-6.09-14.62,169.25,169.25,0,0,0,51.12,15.75c6.22,11.07,15,20.34,22.4,30.64A110.62,110.62,0,0,1,527.94,148.93Z"/><path class="cls-3" d="M568.5,142.72a252.27,252.27,0,0,1-40.56,6.21,112,112,0,0,0-6.16-9.6c-7.37-10.3-16.18-19.58-22.4-30.65A128.47,128.47,0,0,0,519,109.85a212.2,212.2,0,0,0,24.32-1.94c6.26,11.42,15.3,20.89,22.83,31.42C567,140.44,567.74,141.57,568.5,142.72Z"/><path class="cls-4" d="M488,68a143.07,143.07,0,0,1-44.74-15.49,141.68,141.68,0,0,1,6.09-36.29A146.09,146.09,0,0,0,490.48,29,138.07,138.07,0,0,0,488,68Z"/><path class="cls-3" d="M504.09-8.94A144.58,144.58,0,0,0,490.48,29a146.43,146.43,0,0,1-41.14-12.73,142.73,142.73,0,0,1,15-33.25A155.66,155.66,0,0,0,504.09-8.94Z"/><path class="cls-4" d="M540,424.07a209.64,209.64,0,0,1-21,1.51,99.54,99.54,0,0,1-24.22-3c-6-11.35-12.32-22.59-16.79-34.69a117.12,117.12,0,0,1-3.65-11.69c16.9,6.43,32.56,10.2,44.66,9.94l2.73-.07c.2.61.43,1.22.65,1.82C527.08,400.5,533.72,412.19,540,424.07Z"/><path class="cls-3" d="M580.13,416.07a290.46,290.46,0,0,1-40.13,8c-6.28-11.88-12.92-23.57-17.6-36.21-.22-.6-.45-1.21-.65-1.82a239.81,239.81,0,0,0,42.59-5.59q1.11,3.75,2.46,7.41C570.42,397.66,575.22,406.89,580.13,416.07Z"/><path class="cls-4" d="M514.73,346.59c-12.6-.53-28-4.33-44.23-10.37a143.29,143.29,0,0,1,6-33.86A160.63,160.63,0,0,0,519,307.18h.5A141.2,141.2,0,0,0,514.73,346.59Z"/><path class="cls-3" d="M565.63,301.23a142.68,142.68,0,0,0-6.51,40.83,228.72,228.72,0,0,1-40.1,4.59c-1.38,0-2.82,0-4.29-.06a141.2,141.2,0,0,1,4.79-39.42A238,238,0,0,0,565.63,301.23Z"/><path class="cls-4" d="M572.21,220.76c-8.89,14.26-21.47,27-31.34,40.78-1.17,1.62-2.29,3.28-3.39,5-6.12.67-12.27,1.1-18.46,1.22a160.22,160.22,0,0,1-25.73-1.54c1-1.57,2.08-3.12,3.18-4.64,8.14-11.38,18.12-22,26.37-33.4A251,251,0,0,0,572.21,220.76Z"/><path class="cls-3" d="M624.41,204.82c-6.57,19-21.89,34.32-34.63,50.69-17.22,5-34.63,9.06-52.3,11,1.1-1.68,2.22-3.34,3.39-5,9.87-13.79,22.45-26.52,31.34-40.78C589.79,216.49,607.15,210.8,624.41,204.82Z"/><path class="cls-4" d="M538.83,187.41c.35-13.43-4.15-26.68-10.89-38.48a252.27,252.27,0,0,0,40.56-6.21c7.16,10.78,12.68,23.1,14.27,35.84A294.31,294.31,0,0,1,538.83,187.41Z"/><path class="cls-3" d="M624.16,165.44c-13.7,4.76-27.48,9.32-41.39,13.12-1.59-12.74-7.11-25.06-14.27-35.84,12.36-2.86,24.6-6.45,36.78-10.4,1.8,2.3,3.59,4.63,5.29,7A97.77,97.77,0,0,1,624.16,165.44Z"/><path class="cls-4" d="M605.28,132.32c-12.18,4-24.42,7.54-36.78,10.4-.76-1.15-1.54-2.28-2.33-3.39-7.53-10.53-16.57-20-22.83-31.42a303.23,303.23,0,0,0,40.39-8.54,75,75,0,0,0,3.81,8.18C592.39,116.54,599,124.31,605.28,132.32Z"/><path class="cls-3" d="M583.73,99.37a303.23,303.23,0,0,1-40.39,8.54c-.07-.12-.14-.24-.2-.36C537,96.22,533.9,83.31,532.61,70.37c0-.24-.05-.47-.07-.72a270,270,0,0,0,43.9-7.81q.13,4.27.57,8.53A106.12,106.12,0,0,0,583.73,99.37Z"/><path class="cls-4" d="M598.15,456.22A373.55,373.55,0,0,1,556,467a115.48,115.48,0,0,0-6.52-23.39c-2.8-6.67-6.08-13.11-9.45-19.51a290.46,290.46,0,0,0,40.13-8c4.82,9.05,9.74,18.05,13.72,27.51A101,101,0,0,1,598.15,456.22Z"/><path class="cls-3" d="M637.92,442.81c-13.19,4.64-26.43,9.28-39.77,13.41a101,101,0,0,0-4.3-12.64c-4-9.46-8.9-18.46-13.72-27.51,12.84-3.43,25.58-7.52,38.26-11.85C624.77,417.13,632.25,429.53,637.92,442.81Z"/><path class="cls-4" d="M564.34,380.45A239.81,239.81,0,0,1,521.75,386a126.72,126.72,0,0,1-7-39.45c1.47.07,2.91.09,4.29.06a228.72,228.72,0,0,0,40.1-4.59A128.65,128.65,0,0,0,564.34,380.45Z"/><path class="cls-3" d="M605.91,368.92c-13.75,4.46-27.6,8.49-41.57,11.53a128.65,128.65,0,0,1-5.22-38.39,404.13,404.13,0,0,0,45-12.05A134.24,134.24,0,0,0,605.91,368.92Z"/><path class="cls-4" d="M589.78,255.51c-1.55,2-3.07,4-4.52,6a139.56,139.56,0,0,0-19.63,39.69,238,238,0,0,1-46.11,5.94,141.14,141.14,0,0,1,18-40.67C555.15,264.57,572.56,260.54,589.78,255.51Z"/><path class="cls-3" d="M650.78,235.05c-7,8.86-14.64,17.44-21.12,26.49a137.48,137.48,0,0,0-14.3,25.32,481.46,481.46,0,0,1-49.73,14.37,139.56,139.56,0,0,1,19.63-39.69c1.45-2,3-4,4.52-6,20.48-6,40.69-13.37,60.82-20.4Z"/><path class="cls-4" d="M627.23,192.76a58.69,58.69,0,0,1-2.82,12.06c-17.26,6-34.62,11.67-52.2,15.94,5.35-8.58,9.35-17.73,10.63-28a57.17,57.17,0,0,0-.07-14.2c13.91-3.8,27.69-8.36,41.39-13.12A62.33,62.33,0,0,1,627.23,192.76Z"/><path class="cls-3" d="M672,188.43q-10.77,3.49-21.39,7.22c-8.71,3-17.43,6.15-26.19,9.17a58.69,58.69,0,0,0,2.82-12.06,62.33,62.33,0,0,0-3.07-27.32c8.84-3.05,17.65-6.2,26.44-9.26,4.06-1.41,8.12-2.82,12.22-4.18C668.77,163.32,672.55,175.81,672,188.43Z"/><path class="cls-4" d="M576.44,61.84a270,270,0,0,1-43.9,7.81A136.73,136.73,0,0,1,534.68,30a283.74,283.74,0,0,0,46.45-8.85A139.33,139.33,0,0,0,576.44,61.84Z"/><path class="cls-3" d="M630.75,5.29a143,143,0,0,0-9.69,42.84c-14.77,5.06-29.62,9.87-44.62,13.71a139.33,139.33,0,0,1,4.69-40.7C597.83,16.64,614.34,11,630.75,5.29Z"/><path class="cls-4" d="M648.91,484.52c-14.31,5-28.65,10.16-43.1,14.85l-1.33.42c-.65-15.32-2.66-30.43-6.17-43.21,13.28-4.11,26.45-8.73,39.57-13.35h0c.11.25.21.52.33.77A152.27,152.27,0,0,1,648.91,484.52Z"/><path class="cls-4" d="M618.44,404.84c-12.6,4.3-25.28,8.38-38.06,11.79-4.89-9.14-9.67-18.32-13.27-28.07-.9-2.44-1.71-4.89-2.45-7.38,13.91-3,27.69-7,41.37-11.47a120.11,120.11,0,0,0,5.26,18.85A170.84,170.84,0,0,0,618.44,404.84Z"/><path class="cls-3" d="M652.79,392.22l-2.19.76c-10.7,3.74-21.44,7.57-32.21,11.24a169,169,0,0,1-7.19-16.36,119.89,119.89,0,0,1-5.29-18.94c12.74-4.14,25.4-8.64,38-13.08a124.64,124.64,0,0,0,7.16,32Q651.89,390.06,652.79,392.22Z"/><path class="cls-4" d="M615.44,288.05A143.14,143.14,0,0,0,604.29,331a400.35,400.35,0,0,1-44.83,12A142,142,0,0,1,566,302.35,482.53,482.53,0,0,0,615.44,288.05Z"/><path class="cls-3" d="M664,270a142.79,142.79,0,0,0-17.74,45.56c-14,4.9-28,9.91-42.06,14.44a143.93,143.93,0,0,1,11.2-43.15c11.8-4,23.53-8.19,35.24-12.28Q657.24,272.26,664,270Z"/><path class="cls-4" d="M672,188.43c-.06,1.45-.18,2.89-.36,4.33-2,16.14-10.75,29.5-20.85,42.29l-.18.06c-20.13,7-40.34,14.42-60.82,20.4,12.74-16.37,28.06-31.73,34.63-50.69,8.76-3,17.48-6.13,26.19-9.17Q661.22,191.95,672,188.43Z"/><path class="cls-3" d="M711.52,192.76c-1.19,9.67-4.81,18.32-9.7,26.47h0c-17.24,4.35-34.29,10-51,15.81,10.1-12.79,18.86-26.15,20.85-42.29.18-1.44.3-2.88.36-4.33,13-4.17,26.1-8,39.33-10.92A57.65,57.65,0,0,1,711.52,192.76Z"/><path class="cls-3" d="M661.28,70.37c.11,1,.23,2.06.36,3.09q-5.53,1.88-11,3.79c-8.82,3.07-17.65,6.23-26.51,9.3a121.07,121.07,0,0,1-2.68-16.18,133.24,133.24,0,0,1-.35-22.24c9.89-3.4,19.72-6.92,29.54-10.35q6.81-2.37,13.71-4.68C661.34,46.43,660.17,59.16,661.28,70.37Z"/><path class="cls-4" d="M672.08,431.53c-7.24,2.33-14.44,4.78-21.58,7.27l-12.61,4.43h0c-5.64-13.21-13.08-25.55-19.44-38.39,10.73-3.66,21.41-7.47,32.06-11.19l2.18-.75C658.15,406.24,665.59,418.66,672.08,431.53Z"/><path class="cls-3" d="M711.05,420.28c-13,2.91-26,6.65-38.77,10.77-6.51-12.94-14-25.41-19.49-38.83,13.15-4.57,26.49-9,40-12.71.8,2.81,1.72,5.6,2.74,8.35C699.65,399.16,705.4,409.69,711.05,420.28Z"/><path class="cls-4" d="M643.86,356.7c-12.55,4.41-25.15,8.89-37.83,13A133.64,133.64,0,0,1,604.29,331c14-4.51,28-9.5,41.85-14.37A138.77,138.77,0,0,0,643.86,356.7Z"/><path class="cls-3" d="M694.69,300.05a142.85,142.85,0,0,0-6.9,41.4h0c-12.53,3.62-24.94,7.78-37.19,12.05l-6.67,2.33a139.39,139.39,0,0,1,2.29-40.27L650.6,314C665.09,309,679.81,304.09,694.69,300.05Z"/><path class="cls-4" d="M672.78,109.25c-7.45,2.39-14.84,4.91-22.18,7.46-3.44,1.19-6.86,2.41-10.31,3.61a102.28,102.28,0,0,1-8.35-12.77,86,86,0,0,1-7.85-21c8.86-3.07,17.69-6.23,26.51-9.3q5.5-1.91,11-3.79c1.46,11.9,4.54,23.67,10.19,34.09C672.13,108.12,672.45,108.69,672.78,109.25Z"/><path class="cls-3" d="M712,98.42c-13.2,2.91-26.3,6.67-39.25,10.83-.33-.56-.65-1.13-.95-1.7-5.65-10.42-8.73-22.19-10.19-34.09,14.37-4.86,29-9.39,43.67-12.95a85.73,85.73,0,0,0,.37,9.86A108.4,108.4,0,0,0,712,98.42Z"/><path class="cls-4" d="M679.74-11.33A218.49,218.49,0,0,0,664.31,33.1q-6.9,2.3-13.71,4.68c-9.82,3.43-19.65,6.95-29.54,10.35a143,143,0,0,1,9.69-42.84h0C637.38,3,644,.62,650.6-1.68,660.22-5,669.94-8.33,679.74-11.33Z"/><path class="cls-3" d="M731.74-23.61A239.36,239.36,0,0,0,712.91,19.3a467.41,467.41,0,0,0-48.6,13.8,218.49,218.49,0,0,1,15.43-44.43C696.88-16.61,714.24-21.06,731.74-23.61Z"/><path class="cls-3" d="M734.37,506.8a320.32,320.32,0,0,0-44.91,9.76,156.51,156.51,0,0,0-2.59-44.63A339.15,339.15,0,0,1,729,462.22,155.45,155.45,0,0,1,734.37,506.8Z"/><path class="cls-4" d="M729,462.22a339.15,339.15,0,0,0-42.08,9.71,149.81,149.81,0,0,0-8.74-28.35c-1.79-4.26-3.77-8.41-5.85-12.53,12.8-4.12,25.73-7.86,38.77-10.77,4.08,7.65,8.12,15.31,11.48,23.3A147,147,0,0,1,729,462.22Z"/><path class="cls-3" d="M772.66,459.76A204,204,0,0,0,729,462.22a147,147,0,0,0-6.42-18.64c-3.36-8-7.4-15.65-11.48-23.3a247.71,247.71,0,0,1,41.23-5.93c5.12,9.63,10.41,19.17,14.65,29.23A147.17,147.17,0,0,1,772.66,459.76Z"/><path class="cls-4" d="M692.74,379.51c-13.46,3.74-26.8,8.14-40,12.71q-.9-2.16-1.7-4.36a124.64,124.64,0,0,1-7.16-32l6.67-2.33c12.25-4.27,24.66-8.43,37.19-12.05A129.21,129.21,0,0,0,692.74,379.51Z"/><path class="cls-3" d="M734.93,370.6a310.23,310.23,0,0,0-42.19,8.91,129.21,129.21,0,0,1-5-38.05h0a326.81,326.81,0,0,1,44.92-10A133.16,133.16,0,0,0,734.93,370.6Z"/><path class="cls-4" d="M712.91,19.3c-4.63,14.41-7.39,28.52-7.6,41.21C690.6,64.07,676,68.6,661.64,73.46c-.13-1-.25-2-.36-3.09-1.11-11.21.06-23.94,3-37.27A467.41,467.41,0,0,1,712.91,19.3Z"/><path class="cls-3" d="M758.6,13.55A159.36,159.36,0,0,0,750,53.39a260.74,260.74,0,0,0-44.64,7.12c.21-12.69,3-26.8,7.6-41.21A238,238,0,0,1,758.6,13.55Z"/><path class="cls-4" d="M776.5-25.38a220.75,220.75,0,0,0-17.9,38.93,238,238,0,0,0-45.69,5.75,239.36,239.36,0,0,1,18.83-42.91h0A198.44,198.44,0,0,1,776.5-25.38Z"/><path class="cls-4" d="M779.11,369.51a193.18,193.18,0,0,0-44.18,1.09,133.16,133.16,0,0,1-2.22-39.15,197,197,0,0,1,44.54-1.57A133.62,133.62,0,0,0,779.11,369.51Z"/><path class="cls-3" d="M786.54,291.47a143.77,143.77,0,0,0-9.29,38.41,197,197,0,0,0-44.54,1.57,144.14,144.14,0,0,1,9.68-40.64h0a184.26,184.26,0,0,1,41.06.26C784.48,291.18,785.51,291.32,786.54,291.47Z"/><path class="cls-4" d="M701.47,220.76c-8.87,14.81-22,27.88-32.11,42.09-2,2.73-3.82,5.55-5.56,8.43q-6.67,2.24-13.3,4.55c-11.65,4.07-23.32,8.26-35.06,12.22a136.13,136.13,0,0,1,14.22-25.2c6.45-9,14.05-17.54,21-26.36C667.35,230.68,684.31,225.09,701.47,220.76Z"/><path class="cls-3" d="M750.49,211.22c-7.35,15.85-20.34,29.37-31.49,43.61h0c-18.57,3.63-37,9.12-55,15.17q2.63-4.35,5.59-8.47c10.21-14.28,23.35-27.42,32.27-42.3h0A265.88,265.88,0,0,1,750.49,211.22Z"/><path class="cls-4" d="M742.39,290.81a144.14,144.14,0,0,0-9.68,40.64,326.81,326.81,0,0,0-44.92,10,142.85,142.85,0,0,1,6.9-41.4h0A290.84,290.84,0,0,1,742.39,290.81Z"/><path class="cls-4" d="M719,254.84q-2.62,3.32-5,6.7A139.24,139.24,0,0,0,694.69,300h0c-14.88,4-29.6,8.94-44.09,14l-4.38,1.53A142.79,142.79,0,0,1,664,270C682.05,264,700.43,258.47,719,254.84Z"/><path class="cls-3" d="M767,250.37c-3,3.68-5.91,7.38-8.61,11.17a138.39,138.39,0,0,0-16,29.26h0a290.84,290.84,0,0,0-47.7,9.23A139.24,139.24,0,0,1,714,261.54q2.43-3.39,5-6.7h0A220.29,220.29,0,0,1,767,250.37Z"/><path class="cls-4" d="M806.9,256c-1.44,1.83-2.83,3.69-4.17,5.56a137.9,137.9,0,0,0-16.19,29.93c-1-.15-2.06-.29-3.09-.41a184.26,184.26,0,0,0-41.06-.26,138.39,138.39,0,0,1,16-29.26c2.7-3.79,5.62-7.49,8.61-11.17,5.5.14,11,.53,16.5,1.22A211.56,211.56,0,0,1,806.9,256Z"/><path class="cls-4" d="M793.68,213.7C787,226.85,776.61,238.48,767,250.37a220.29,220.29,0,0,0-48,4.46c11.15-14.24,24.14-27.76,31.49-43.61a178.14,178.14,0,0,1,33,.91C786.87,212.55,790.28,213.09,793.68,213.7Z"/><path class="cls-4" d="M755.91,192.76a61.35,61.35,0,0,1-5.42,18.46,265.88,265.88,0,0,0-48.67,8c4.89-8.15,8.51-16.8,9.7-26.47a57.65,57.65,0,0,0-.2-15.25,243.48,243.48,0,0,1,43.26-6A59.79,59.79,0,0,1,755.91,192.76Z"/><path class="cls-4" d="M672,188.43c.56-12.62-3.22-25.11-9.17-36.43,11.12-3.74,22.36-7.28,33.69-10.31,7.27,10.74,13,23,14.81,35.82C698.09,180.46,685,184.26,672,188.43Z"/><path class="cls-3" d="M754.58,171.55a243.48,243.48,0,0,0-43.26,6c-1.82-12.78-7.54-25.08-14.81-35.82a301.17,301.17,0,0,1,38.59-7.9c1.41,1.82,2.8,3.66,4.15,5.54C746.13,149,751.85,160,754.58,171.55Z"/><path class="cls-4" d="M799.78,175.44c-5.42-1.15-10.86-2.11-16.33-2.78a174.41,174.41,0,0,0-28.87-1.11c-2.73-11.57-8.45-22.6-15.33-32.22-1.35-1.88-2.74-3.72-4.15-5.54a193.84,193.84,0,0,1,43.53-1.12c1.71,2.19,3.39,4.4,5,6.66C791.3,150,797.5,162.46,799.78,175.44Z"/><path class="cls-3" d="M778.63,132.67a193.84,193.84,0,0,0-43.53,1.12c-6.61-8.54-13.72-16.7-18.88-26.24A76.9,76.9,0,0,1,712,98.42a243,243,0,0,1,42.39-5.8,81.33,81.33,0,0,0,6.2,14.93C765.54,116.67,772.26,124.53,778.63,132.67Z"/><path class="cls-4" d="M754.42,92.62A243,243,0,0,0,712,98.42a108.4,108.4,0,0,1-6.35-28,85.73,85.73,0,0,1-.37-9.86A260.74,260.74,0,0,1,750,53.39a99.87,99.87,0,0,0,.13,17A114,114,0,0,0,754.42,92.62Z"/><path class="cls-3" d="M800.14,96.59c-5.55-1.19-11.11-2.17-16.69-2.86a175.25,175.25,0,0,0-29-1.11,114,114,0,0,1-4.34-22.25,99.87,99.87,0,0,1-.13-17,178,178,0,0,1,33.5.87c3.47.43,6.94,1,10.39,1.6a132.68,132.68,0,0,0,.64,14.51A110.71,110.71,0,0,0,800.14,96.59Z"/><path class="cls-4" d="M222.09,145.48c-11,2.94-22,6.38-32.77,10a105.67,105.67,0,0,0-7.63-12.32c-4.53-6.33-9.62-12.27-14.27-18.49,3.35-1.16,6.68-2.35,10-3.5,7.13-2.49,14.32-4.94,21.56-7.26,6,10.53,14.42,19.41,21.47,29.25C221,143.94,221.55,144.71,222.09,145.48Z"/><path class="cls-4" d="M167.42,124.69c-11.29,4-22.64,8-34,11.67-6.11-7.79-12.53-15.34-17.25-24.08a76.44,76.44,0,0,1-3.71-8c13.18-3.66,26.25-8,39.25-12.47a84,84,0,0,0,7.63,20.42A99.16,99.16,0,0,0,167.42,124.69Z"/><path class="cls-4" d="M339.74-9.85a138.33,138.33,0,0,0-15.57,34.6c-5.23-1.09-10.46-2-15.71-2.66a168.94,168.94,0,0,0-24.17-1.21A215.35,215.35,0,0,1,301.69-17c2.26.17,4.51.41,6.77.69A231.58,231.58,0,0,1,339.74-9.85Z"/><path class="cls-4" d="M64.47,75.43q-6.54.57-13.14.72a157.45,157.45,0,0,1-30.17-2.31,134.12,134.12,0,0,1,2.42-38,156.23,156.23,0,0,0,27.75,1.91q7.65-.17,15.22-.91A133.45,133.45,0,0,0,64.47,75.43Z"/><path class="cls-4" d="M132.58-16.29a137.88,137.88,0,0,0-20.85,44.54,275,275,0,0,1-45.18,8.61A139.88,139.88,0,0,1,81.31-3.45C98.62-6.26,115.68-10.9,132.58-16.29Z"/><path class="cls-3" d="M73.15,112.63a209.42,209.42,0,0,1-23.64,1.89,126.51,126.51,0,0,1-19.11-1.14l-.61-1.1c-6-11-9-23.57-10.25-36.15-.08-.76-.15-1.53-.21-2.29a157.49,157.49,0,0,0,30.18,2.31q6.59-.15,13.13-.72c0,.23,0,.46.07.7C64,88.71,67,101.26,73,112.28Z"/><path class="cls-3" d="M79.48-3.45A139.88,139.88,0,0,0,64.72,36.86c-5,.5-10.12.8-15.21.91a156.28,156.28,0,0,1-27.76-1.91A139.88,139.88,0,0,1,35-1c4.85.36,9.71.48,14.52.38A213,213,0,0,0,79.48-3.45Z"/><path class="cls-4" d="M235.93-49.41A227.81,227.81,0,0,0,207.61-3.32c-9.53,2.92-19,6.12-28.34,9.39-6.42,2.23-12.85,4.51-19.3,6.76a130.78,130.78,0,0,1,35.09-50.52C208.53-42.14,222.17-46.23,235.93-49.41Z"/><path class="cls-3" d="M259.61,137.79a291.37,291.37,0,0,0-37.52,7.69c-.54-.77-1.07-1.54-1.61-2.3-7-9.84-15.44-18.72-21.47-29.25,12.6-4,25.33-7.71,38.17-10.53a75.73,75.73,0,0,0,4.07,8.88C246.27,121.55,253.18,129.49,259.61,137.79Z"/><path class="cls-4" d="M398.58-31.95A130.33,130.33,0,0,0,375,.8c-12.34-3.4-24.69-7.32-37.11-10.65a124.67,124.67,0,0,1,26.93-30.63C376.11-37.19,387.34-34.07,398.58-31.95Z"/><path class="cls-3" d="M322.34,24.75A137,137,0,0,0,316.73,62q-5-.93-10.1-1.56a174.09,174.09,0,0,0-32.58-.85,154.66,154.66,0,0,1,8.41-38.73,168.94,168.94,0,0,1,24.17,1.21C311.88,22.73,317.12,23.66,322.34,24.75Z"/><path class="cls-3" d="M189.32,155.5c-4,1.32-7.93,2.69-11.87,4.06-8.55,3-17.12,6-25.71,9a95.28,95.28,0,0,0-13.22-25.38c-1.65-2.31-3.39-4.58-5.14-6.82,11.4-3.68,22.75-7.68,34-11.67,4.65,6.22,9.74,12.16,14.27,18.49A105.67,105.67,0,0,1,189.32,155.5Z"/><path class="cls-3" d="M151.67,91.86c-13,4.49-26.07,8.81-39.25,12.47a103.1,103.1,0,0,1-6.53-28.2c-.28-2.77-.47-5.53-.56-8.3,14.59-3.73,29-8.41,43.39-13.34a130.34,130.34,0,0,0,.34,21.64A117.83,117.83,0,0,0,151.67,91.86Z"/><path class="cls-3" d="M193.24-37.69a130.56,130.56,0,0,0-35.09,50.52h0c-16,5.58-32,11-48.25,15.41a138.09,138.09,0,0,1,20.85-44.54c15.68-5,31.21-10.62,46.7-16Q185.3-35.05,193.24-37.69Z"/><path class="cls-4" d="M321.32,414c-4.88-1-9.78-1.85-14.69-2.45a172.77,172.77,0,0,0-30.31-1,214.9,214.9,0,0,1-12.07-25.76,118.09,118.09,0,0,1-4.81-16.78,187.1,187.1,0,0,1,43-1.06,116.46,116.46,0,0,0,5,17.84C311.18,395,316.24,404.52,321.32,414Z"/><path class="cls-4" d="M132.48,493.53a405,405,0,0,1-42,11.38l-1,.19a273.75,273.75,0,0,0-4-43.33,364.27,364.27,0,0,0,41-10.46C129.88,463.8,131.84,478.57,132.48,493.53Z"/><path class="cls-4" d="M174.73,523.12h0c-14.72,5.15-29.49,10.47-44.37,15.21a242.08,242.08,0,0,0,2.12-44.8l1.29-.41c14.13-4.58,28.14-9.63,42.12-14.51A151.63,151.63,0,0,1,174.73,523.12Z"/><path class="cls-3" d="M130.36,538.33a382.65,382.65,0,0,1-43.14,11.34,297.94,297.94,0,0,0,2.25-44.57l1-.19a405,405,0,0,0,42-11.38A242.08,242.08,0,0,1,130.36,538.33Z"/><path class="cls-4" d="M212.71,466.59c-11.87,3.47-23.64,7.42-35.26,11.47l-1.56.55A148.64,148.64,0,0,0,165.44,439c-.11-.25-.21-.51-.32-.75l12.33-4.33c7-2.44,14-4.83,21.08-7.1,2,4,3.94,8,5.69,12.18A145.64,145.64,0,0,1,212.71,466.59Z"/><path class="cls-3" d="M215.23,510c-12.74,3.63-25.35,7.85-37.78,12.19l-2.72.94a151.63,151.63,0,0,0,1.16-44.51l1.56-.55c11.62-4.05,23.39-8,35.26-11.47A151.9,151.9,0,0,1,215.23,510Z"/><path class="cls-4" d="M344.88,508.19c-12.68-3.59-25.42-6.77-38.25-8.36-1.51-.19-3-.35-4.53-.49a151.77,151.77,0,0,0-6-44.59q5.25.3,10.5.95a244.63,244.63,0,0,1,34.84,7.41A152.09,152.09,0,0,1,344.88,508.19Z"/><path class="cls-3" d="M276.32,410.6a240.43,240.43,0,0,0-40.1,5.77c-5.49-10.3-11.08-20.55-15.14-31.53-1-2.67-1.88-5.38-2.66-8.12a300.61,300.61,0,0,1,41-8.66,118.09,118.09,0,0,0,4.81,16.78A214.9,214.9,0,0,0,276.32,410.6Z"/><path class="cls-3" d="M302.1,499.34a188.62,188.62,0,0,0-43.2,1.15,151.15,151.15,0,0,0-5.27-43.34,198.55,198.55,0,0,1,42.5-2.4A151.77,151.77,0,0,1,302.1,499.34Z"/><path class="cls-4" d="M387,475.92c-15.14-3.65-30.29-8.6-45.53-12.81A144.2,144.2,0,0,0,333.73,439c-3.61-8.58-8-16.78-12.41-25,16.9,3.49,33.64,9,50.34,13.7,1.86,3.7,3.63,7.45,5.24,11.28A148.09,148.09,0,0,1,387,475.92Z"/><path class="cls-3" d="M386.71,520c-13.91-3.36-27.84-7.82-41.83-11.78a152.09,152.09,0,0,0-3.41-45.08c15.24,4.21,30.39,9.16,45.53,12.81A151.92,151.92,0,0,1,386.71,520Z"/><path class="cls-3" d="M4.16,504a126.41,126.41,0,0,1-43.74-21.81A148.89,148.89,0,0,0-50.41,439q-1.43-3.37-3-6.67c15,11.64,33.69,20.44,52.74,26A152.14,152.14,0,0,1,4.16,504Z"/><path class="cls-4" d="M4.16,504c-.24,5.47-4.41,23.77-8.69,41.35a122.09,122.09,0,0,1-36.89-20.53,150.82,150.82,0,0,0,1.84-42.63A126.41,126.41,0,0,0,4.16,504Z"/><path class="cls-4" d="M13.14,149.37c-29.61-6.45-57.2-21.81-74.15-47a105.78,105.78,0,0,1-5.78-26.22,128.65,128.65,0,0,1-.6-15.94c11.84,15.6,29,28.54,48.09,37.88a79.36,79.36,0,0,0,5.92,14.21c6.08,11.26,15,20.54,22.39,30.9Q11.17,146.2,13.14,149.37Z"/><path class="cls-3" d="M25.6,189.92a143.28,143.28,0,0,1-44.36-13.19c-2.43-12-8.26-23.58-15.4-33.55-7.41-10.36-16.3-19.64-22.39-30.9A74.33,74.33,0,0,1-61,102.35c16.95,25.21,44.54,40.57,74.15,47C20.7,161.62,26,175.66,25.6,189.92Z"/><path class="cls-3" d="M12.52,226C5.33,236.6-3.71,246.45-11.65,256.72A119.85,119.85,0,0,1-40.8,239.46c6.85-8.46,13.31-17.1,17.68-26.61A136.9,136.9,0,0,0,12.52,226Z"/><path class="cls-4" d="M26,418.57C9.47,414.74-9.46,407.37-27.91,398c-2.07-4.3-4-8.66-5.64-13.15a122.23,122.23,0,0,1-7.2-34.23A310,310,0,0,0,6.08,373.47a115.92,115.92,0,0,0,3.54,11.37C14,396.6,20.08,407.53,26,418.57Z"/><path class="cls-4" d="M8.14,301.7a139.1,139.1,0,0,0-5.82,32.92,290.9,290.9,0,0,1-40.79-19.15,141,141,0,0,1,9.22-29.42A133.24,133.24,0,0,0,8.14,301.7Z"/><path class="cls-4" d="M53.21,229.53C45.2,240.59,35.49,251,27.57,262c-1.06,1.48-2.09,3-3.09,4.51a145.66,145.66,0,0,1-36.13-9.8c7.94-10.27,17-20.12,24.17-30.73a155.8,155.8,0,0,0,37,3.65C50.74,229.62,52,229.58,53.21,229.53Z"/><path class="cls-4" d="M25.6,189.92c0,1.74-.17,3.47-.38,5.21-1.42,11.45-6.33,21.46-12.7,30.86a136.9,136.9,0,0,1-35.64-13.14,60,60,0,0,0,5.17-17.72,57.37,57.37,0,0,0-.81-18.4A143.28,143.28,0,0,0,25.6,189.92Z"/><path class="cls-4" d="M68.77,189.93c-6.39.74-12.81,1.2-19.26,1.33a155,155,0,0,1-23.91-1.34c.36-14.26-4.9-28.3-12.46-40.55a155.86,155.86,0,0,0,36.37,3.52c2.89-.06,5.78-.18,8.67-.38C64.72,164,69.1,176.87,68.77,189.93Z"/><path class="cls-4" d="M30.4,113.38A164.77,164.77,0,0,1-19.3,98.07a110.24,110.24,0,0,1-4.32-21.94,129,129,0,0,1-.55-17.36,139.2,139.2,0,0,0,43.5,15.07c.06.76.13,1.53.21,2.29,1.26,12.58,4.29,25.13,10.25,36.15Z"/><path class="cls-4" d="M41.74,509.71A153.35,153.35,0,0,1,4.16,504,152.14,152.14,0,0,0-.66,458.4a174.91,174.91,0,0,0,42.21,7.16C42.78,478.88,42.68,494.33,41.74,509.71Z"/><path class="cls-3" d="M89.47,505.1a224.44,224.44,0,0,1-40,4.66c-.85,0-1.71,0-2.56,0-1.73,0-3.48,0-5.21-.07.94-15.38,1-30.83-.19-44.15,2.7.12,5.35.14,8,.09a220.62,220.62,0,0,0,35.92-3.88A273.75,273.75,0,0,1,89.47,505.1Z"/><path class="cls-3" d="M41.55,465.56A174.91,174.91,0,0,1-.66,458.4,145.39,145.39,0,0,0-7.24,439c-5.95-14.14-14.06-27.23-20.67-41C-9.46,407.37,9.47,414.74,26,418.57c3.56,6.71,7,13.45,10,20.45C38.79,445.83,40.58,455,41.55,465.56Z"/><path class="cls-4" d="M85.43,461.77a220.62,220.62,0,0,1-35.92,3.88c-2.61.05-5.26,0-8-.09-1-10.53-2.76-19.73-5.63-26.54-2.94-7-6.41-13.74-10-20.45a96.74,96.74,0,0,0,23.56,2.95,203.79,203.79,0,0,0,20.39-1.47c3.28,6.22,6.46,12.48,9.2,19A112.44,112.44,0,0,1,85.43,461.77Z"/><path class="cls-3" d="M6.08,373.47a310,310,0,0,1-46.83-22.86,136.45,136.45,0,0,1,2.28-35.14A290.9,290.9,0,0,0,2.32,334.62,127.49,127.49,0,0,0,6.08,373.47Z"/><path class="cls-4" d="M52.16,383.07l-2.65.07c-11.77.25-27-3.42-43.43-9.67a127.49,127.49,0,0,1-3.76-38.85c15.77,5.88,30.75,9.58,43,10.09A123.06,123.06,0,0,0,52.16,383.07Z"/><path class="cls-3" d="M24.48,266.52A137,137,0,0,0,8.14,301.7a133.24,133.24,0,0,1-37.39-15.65A133.57,133.57,0,0,1-15.6,262q1.9-2.67,3.95-5.29A145.66,145.66,0,0,0,24.48,266.52Z"/><path class="cls-4" d="M67.45,266.83A137.37,137.37,0,0,0,50,306.38h-.48A156,156,0,0,1,8.14,301.7a137,137,0,0,1,16.34-35.18,156.12,156.12,0,0,0,25,1.5C55.52,267.9,61.5,267.49,67.45,266.83Z"/><path class="cls-3" d="M68.77,189.93a50.51,50.51,0,0,1-.38,5.2c-1.6,12.9-7.63,24-15.18,34.4-1.23.05-2.47.09-3.7.11a155.8,155.8,0,0,1-37-3.65c6.37-9.4,11.28-19.41,12.7-30.86.21-1.74.34-3.47.38-5.21a155,155,0,0,0,23.91,1.34C56,191.13,62.38,190.67,68.77,189.93Z"/><path class="cls-4" d="M111.55,195.13c-1.24,10-5.12,18.88-10.33,27.23a243.9,243.9,0,0,1-48,7.17c7.55-10.44,13.58-21.5,15.18-34.4a50.51,50.51,0,0,0,.38-5.2,284.59,284.59,0,0,0,42.72-8.61A55,55,0,0,1,111.55,195.13Z"/><path class="cls-3" d="M58.18,152.51c-2.89.2-5.78.32-8.67.38a155.86,155.86,0,0,1-36.37-3.52q-2-3.18-4.13-6.19C1.6,132.82-7.3,123.54-13.38,112.28A79.36,79.36,0,0,1-19.3,98.07a164.77,164.77,0,0,0,49.7,15.31c6.05,10.76,14.62,19.78,21.79,29.8A108.16,108.16,0,0,1,58.18,152.51Z"/><path class="cls-4" d="M97.62,146.47a245.22,245.22,0,0,1-39.44,6,108.16,108.16,0,0,0-6-9.33c-7.17-10-15.74-19-21.79-29.8a126.51,126.51,0,0,0,19.11,1.14,209.42,209.42,0,0,0,23.64-1.89c6.08,11.1,14.88,20.31,22.2,30.55C96.12,144.25,96.88,145.35,97.62,146.47Z"/><path class="cls-3" d="M19.33,73.84a139.2,139.2,0,0,1-43.5-15.07,137.51,137.51,0,0,1,5.92-35.29,142.26,142.26,0,0,0,40,12.38A134.49,134.49,0,0,0,19.33,73.84Z"/><path class="cls-4" d="M36.81-1A140.21,140.21,0,0,0,23.58,35.86a142.26,142.26,0,0,1-40-12.38A138.71,138.71,0,0,1-1.86-8.85,151.62,151.62,0,0,0,36.81-1Z"/><path class="cls-3" d="M69.9,420.05a203.79,203.79,0,0,1-20.39,1.47A96.74,96.74,0,0,1,26,418.57c-5.87-11-12-22-16.33-33.73a115.92,115.92,0,0,1-3.54-11.37c16.43,6.25,31.66,9.92,43.43,9.67l2.65-.07c.19.59.41,1.19.63,1.77C57.34,397.13,63.8,408.5,69.9,420.05Z"/><path class="cls-4" d="M108.92,412.27a283.28,283.28,0,0,1-39,7.78c-6.1-11.55-12.56-22.92-17.11-35.21-.22-.58-.44-1.18-.63-1.77a232.1,232.1,0,0,0,41.4-5.44q1.08,3.64,2.4,7.21C99.48,394.37,104.15,403.35,108.92,412.27Z"/><path class="cls-3" d="M45.33,344.71c-12.26-.51-27.24-4.21-43-10.09A139.1,139.1,0,0,1,8.14,301.7a156,156,0,0,0,41.37,4.69H50A137.56,137.56,0,0,0,45.33,344.71Z"/><path class="cls-4" d="M94.83,300.6a138.43,138.43,0,0,0-6.34,39.71,223.81,223.81,0,0,1-39,4.46c-1.36,0-2.75,0-4.18-.06A137.56,137.56,0,0,1,50,306.38,231.36,231.36,0,0,0,94.83,300.6Z"/><path class="cls-3" d="M101.22,222.36C92.58,236.22,80.35,248.6,70.75,262c-1.14,1.58-2.23,3.19-3.3,4.82-6,.66-11.93,1.07-17.94,1.19a156.12,156.12,0,0,1-25-1.5c1-1.52,2-3,3.09-4.51C35.49,251,45.2,240.59,53.21,229.53A243.9,243.9,0,0,0,101.22,222.36Z"/><path class="cls-4" d="M152,206.86c-6.39,18.43-21.28,33.37-33.67,49.29C101.56,261,84.63,265,67.45,266.83c1.07-1.63,2.16-3.24,3.3-4.82,9.6-13.41,21.83-25.79,30.47-39.65C118.32,218.2,135.2,212.67,152,206.86Z"/><path class="cls-3" d="M68.77,189.93c.33-13.06-4-25.94-10.59-37.42a245.22,245.22,0,0,0,39.44-6c6.95,10.49,12.33,22.46,13.87,34.85A284.59,284.59,0,0,1,68.77,189.93Z"/><path class="cls-4" d="M151.74,168.56c-13.33,4.63-26.72,9.07-40.25,12.76C110,168.93,104.57,157,97.62,146.47c12-2.78,23.92-6.27,35.76-10.11,1.75,2.24,3.49,4.51,5.14,6.82A95.28,95.28,0,0,1,151.74,168.56Z"/><path class="cls-3" d="M133.38,136.36c-11.84,3.84-23.75,7.33-35.76,10.11-.74-1.12-1.5-2.22-2.27-3.29-7.32-10.24-16.12-19.45-22.2-30.55a296.23,296.23,0,0,0,39.27-8.3,76.44,76.44,0,0,0,3.71,8C120.85,121,127.27,128.57,133.38,136.36Z"/><path class="cls-4" d="M112.42,104.33a296.23,296.23,0,0,1-39.27,8.3l-.2-.35c-6-11-9-23.57-10.24-36.15,0-.24-.05-.47-.07-.7a262.55,262.55,0,0,0,42.69-7.6c.09,2.77.28,5.53.56,8.3A103.1,103.1,0,0,0,112.42,104.33Z"/><path class="cls-3" d="M126.45,451.31a364.27,364.27,0,0,1-41,10.46A112.44,112.44,0,0,0,79.1,439c-2.74-6.49-5.92-12.75-9.2-19a283.28,283.28,0,0,0,39-7.78c4.69,8.8,9.47,17.55,13.35,26.75A103.29,103.29,0,0,1,126.45,451.31Z"/><path class="cls-4" d="M165.11,438.27c-12.82,4.51-25.69,9-38.66,13A103.29,103.29,0,0,0,122.27,439c-3.88-9.2-8.66-17.95-13.35-26.75,12.49-3.33,24.88-7.31,37.2-11.52C152.33,413.3,159.6,425.36,165.11,438.27Z"/><path class="cls-3" d="M93.56,377.63a232.1,232.1,0,0,1-41.4,5.44,123.06,123.06,0,0,1-6.83-38.36c1.43.07,2.82.09,4.18.06a223.81,223.81,0,0,0,39-4.46A125.43,125.43,0,0,0,93.56,377.63Z"/><path class="cls-4" d="M134,366.42c-13.37,4.34-26.83,8.25-40.43,11.21a125.43,125.43,0,0,1-5.07-37.32,393.35,393.35,0,0,0,43.8-11.72A130.33,130.33,0,0,0,134,366.42Z"/><path class="cls-3" d="M118.31,256.15c-1.51,1.93-3,3.89-4.4,5.86A135.64,135.64,0,0,0,94.83,300.6,231.36,231.36,0,0,1,50,306.38a137.37,137.37,0,0,1,17.46-39.55C84.63,265,101.56,261,118.31,256.15Z"/><path class="cls-4" d="M177.62,236.25c-6.81,8.62-14.24,17-20.54,25.76a133.75,133.75,0,0,0-13.9,24.62,467.9,467.9,0,0,1-48.35,14A135.64,135.64,0,0,1,113.91,262c1.41-2,2.89-3.93,4.4-5.86,19.91-5.82,39.56-13,59.14-19.84Z"/><path class="cls-3" d="M154.73,195.13A57.45,57.45,0,0,1,152,206.86c-16.78,5.81-33.66,11.34-50.76,15.5,5.21-8.35,9.09-17.24,10.33-27.23a55,55,0,0,0-.06-13.81c13.53-3.69,26.92-8.13,40.25-12.76A60.74,60.74,0,0,1,154.73,195.13Z"/><path class="cls-4" d="M198.24,190.93c-7,2.25-13.91,4.61-20.79,7-8.47,3-17,6-25.47,8.92a57.45,57.45,0,0,0,2.75-11.73,60.74,60.74,0,0,0-3-26.57c8.59-3,17.16-6,25.71-9,3.94-1.37,7.89-2.74,11.87-4.06C195.11,166.5,198.79,178.65,198.24,190.93Z"/><path class="cls-3" d="M105.33,67.83a262.55,262.55,0,0,1-42.69,7.6,133.45,133.45,0,0,1,2.08-38.57,275,275,0,0,0,45.18-8.61A135.82,135.82,0,0,0,105.33,67.83Z"/><path class="cls-4" d="M160,12.84a139.28,139.28,0,0,0-9.42,41.65c-14.36,4.93-28.8,9.61-43.39,13.34a135.82,135.82,0,0,1,4.57-39.58C128,23.88,144,18.42,160,12.84Z"/><path class="cls-3" d="M175.89,478.61c-14,4.88-28,9.93-42.12,14.51l-1.29.41c-.64-15-2.6-29.73-6-42.22,13-4,25.84-8.53,38.66-13h0c.11.24.21.5.32.75A148.64,148.64,0,0,1,175.89,478.61Z"/><path class="cls-3" d="M146.12,400.75c-12.32,4.21-24.71,8.19-37.2,11.52-4.77-8.92-9.44-17.9-13-27.43q-1.32-3.57-2.4-7.21c13.6-3,27.06-6.87,40.43-11.21a116.81,116.81,0,0,0,5.14,18.42A165.64,165.64,0,0,0,146.12,400.75Z"/><path class="cls-4" d="M179.57,389.08l-2.12.74c-10.41,3.63-20.85,7.36-31.33,10.93a165.64,165.64,0,0,1-7-15.91A116.81,116.81,0,0,1,134,366.42c12.39-4,24.7-8.4,37-12.71a121.26,121.26,0,0,0,7,31.13C178.44,386.27,179,387.68,179.57,389.08Z"/><path class="cls-3" d="M143.18,286.63a140.21,140.21,0,0,0-10.89,42,393.35,393.35,0,0,1-43.8,11.72,138.43,138.43,0,0,1,6.34-39.71A467.9,467.9,0,0,0,143.18,286.63Z"/><path class="cls-4" d="M190.44,270.25a138.44,138.44,0,0,0-17.25,44.3c-13.57,4.76-27.19,9.64-40.9,14a140.21,140.21,0,0,1,10.89-42c11.48-3.87,22.88-8,34.27-11.94C181.75,273.18,186.09,271.7,190.44,270.25Z"/><path class="cls-3" d="M198.24,190.93c-.06,1.4-.17,2.8-.34,4.2-1.94,15.69-10.46,28.68-20.28,41.12l-.17.06c-19.58,6.84-39.23,14-59.14,19.84,12.39-15.92,27.28-30.86,33.67-49.29,8.51-2.94,17-6,25.47-8.92C184.33,195.54,191.26,193.18,198.24,190.93Z"/><path class="cls-4" d="M236.68,195.13c-1.16,9.4-4.68,17.82-9.43,25.74h0c-16.76,4.23-33.34,9.7-49.63,15.37,9.82-12.44,18.34-25.43,20.28-41.12.17-1.4.28-2.8.34-4.2,12.62-4.07,25.38-7.76,38.25-10.63A55.77,55.77,0,0,1,236.68,195.13Z"/><path class="cls-4" d="M187.83,76.13c.1,1,.22,2,.35,3q-5.38,1.82-10.73,3.69c-8.58,3-17.17,6.05-25.78,9a117.83,117.83,0,0,1-2.61-15.73,130.34,130.34,0,0,1-.34-21.64c9.61-3.3,19.17-6.72,28.73-10.05,4.41-1.54,8.86-3.07,13.32-4.56C187.88,52.84,186.75,65.23,187.83,76.13Z"/><path class="cls-3" d="M198.53,426.84c-7.08,2.27-14.11,4.66-21.08,7.1l-12.33,4.33h0c-5.51-12.91-12.78-25-19-37.52,10.48-3.57,20.92-7.3,31.33-10.93l2.12-.74C184.92,402.12,192.19,414.25,198.53,426.84Z"/><path class="cls-4" d="M236.22,416.37c-12.67,2.82-25.25,6.46-37.69,10.47-6.34-12.59-13.61-24.72-19-37.76,12.79-4.44,25.76-8.72,38.85-12.36.78,2.74,1.68,5.45,2.66,8.12C225.14,395.82,230.73,406.07,236.22,416.37Z"/><path class="cls-3" d="M171,353.71c-12.27,4.31-24.58,8.69-37,12.71a130.33,130.33,0,0,1-1.7-37.83c13.71-4.4,27.33-9.28,40.9-14A135.62,135.62,0,0,0,171,353.71Z"/><path class="cls-4" d="M220.31,299.45a138.89,138.89,0,0,0-6.7,40.26h0c-12.18,3.52-24.26,7.57-36.16,11.72L171,353.71a135.62,135.62,0,0,1,2.23-39.16l4.26-1.49C191.53,308.15,205.85,303.38,220.31,299.45Z"/><path class="cls-3" d="M199,113.93c-7.24,2.32-14.43,4.77-21.56,7.26-3.35,1.15-6.68,2.34-10,3.5a99.16,99.16,0,0,1-8.12-12.41,84,84,0,0,1-7.63-20.42c8.61-3,17.2-6.06,25.78-9q5.34-1.87,10.73-3.69c1.42,11.57,4.42,23,9.91,33.15C198.38,112.83,198.69,113.39,199,113.93Z"/><path class="cls-4" d="M237.18,103.4c-12.84,2.82-25.57,6.49-38.17,10.53-.32-.54-.63-1.1-.92-1.65-5.49-10.14-8.49-21.58-9.91-33.15,14-4.73,28.16-9.13,42.46-12.59a81.14,81.14,0,0,0,.37,9.59A105.13,105.13,0,0,0,237.18,103.4Z"/><path class="cls-3" d="M205.78-3.32a213.14,213.14,0,0,0-15,43.2c-4.46,1.49-8.91,3-13.32,4.56-9.56,3.33-19.12,6.75-28.73,10.05a139,139,0,0,1,9.43-41.65h0c6.44-2.25,12.87-4.53,19.3-6.76C186.8,2.8,196.25-.4,205.78-3.32Z"/><path class="cls-4" d="M258.17-15.26a233.65,233.65,0,0,0-18.31,41.73A454.63,454.63,0,0,0,192.6,39.88a212.53,212.53,0,0,1,15-43.2C224.27-8.45,241.15-12.78,258.17-15.26Z"/><path class="cls-4" d="M258.9,500.49a311.2,311.2,0,0,0-43.67,9.5,151.9,151.9,0,0,0-2.52-43.4,328.08,328.08,0,0,1,40.92-9.44A151.15,151.15,0,0,1,258.9,500.49Z"/><path class="cls-3" d="M253.63,457.15a328.08,328.08,0,0,0-40.92,9.44A145.64,145.64,0,0,0,204.22,439c-1.75-4.14-3.67-8.18-5.69-12.18,12.44-4,25-7.65,37.69-10.47,4,7.43,7.9,14.88,11.17,22.65A145.81,145.81,0,0,1,253.63,457.15Z"/><path class="cls-3" d="M341.47,463.11a244.63,244.63,0,0,0-34.84-7.41q-5.25-.65-10.5-.95A143.87,143.87,0,0,0,290.56,439c-4.12-9.78-9.26-19.06-14.24-28.42a172.77,172.77,0,0,1,30.31,1c4.91.6,9.81,1.44,14.69,2.45,4.39,8.2,8.8,16.4,12.41,25A144.2,144.2,0,0,1,341.47,463.11Z"/><path class="cls-4" d="M296.13,454.75a198.55,198.55,0,0,0-42.5,2.4A145.81,145.81,0,0,0,247.39,439c-3.27-7.77-7.2-15.22-11.17-22.65a240.43,240.43,0,0,1,40.1-5.77c5,9.36,10.12,18.64,14.24,28.42A143.87,143.87,0,0,1,296.13,454.75Z"/><path class="cls-3" d="M218.42,376.72c-13.09,3.64-26.06,7.92-38.85,12.36-.58-1.4-1.13-2.81-1.65-4.24a121.26,121.26,0,0,1-7-31.13l6.49-2.27c11.9-4.15,24-8.2,36.16-11.72A125.52,125.52,0,0,0,218.42,376.72Z"/><path class="cls-4" d="M259.44,368.06a300.61,300.61,0,0,0-41,8.66,125.52,125.52,0,0,1-4.81-37h0A320.81,320.81,0,0,1,257.28,330,130,130,0,0,0,259.44,368.06Z"/><path class="cls-3" d="M238,26.47c-4.5,14-7.18,27.73-7.39,40.07-14.3,3.46-28.48,7.86-42.46,12.59-.13-1-.25-2-.35-3-1.08-10.9,0-23.29,2.94-36.25A456,456,0,0,1,238,26.47Z"/><path class="cls-4" d="M282.46,20.88a154.66,154.66,0,0,0-8.41,38.73,253.27,253.27,0,0,0-43.41,6.93c.21-12.34,2.89-26.06,7.39-40.07A230.56,230.56,0,0,1,282.46,20.88Z"/><path class="cls-3" d="M299.87-17a214.68,214.68,0,0,0-17.41,37.86A230.56,230.56,0,0,0,238,26.47a233.65,233.65,0,0,1,18.31-41.73h0A192.81,192.81,0,0,1,299.87-17Z"/><path class="cls-4" d="M429,525.17c-14.13.5-28.19-1.79-42.27-5.2a151.92,151.92,0,0,0,.29-44.05c14.58,3.52,29.16,5.82,43.78,5.07A150.82,150.82,0,0,1,429,525.17Z"/><path class="cls-3" d="M440.14-30.3c-.42.44-.85.89-1.25,1.34A132.34,132.34,0,0,0,414.55,8.55l0,.1c-.82-.07-1.65-.15-2.47-.24l-1.83-.2-.76-.09-1.69-.21c-3.41-.46-6.82-1-10.23-1.69l-1.47-.29c-1.57-.31-3.14-.64-4.71-1-1.33-.29-2.66-.6-4-.92l-.06,0c-1.36-.32-2.73-.66-4.09-1l-.79-.2-3.31-.87c-1.36-.36-2.73-.73-4.09-1.11A130.38,130.38,0,0,1,398.58-32a138,138,0,0,0,30.25,2.65c2.82-.09,5.64-.29,8.47-.63C438.25-30,439.19-30.16,440.14-30.3Z"/><path class="cls-3" d="M430.78,481c-14.62.75-29.2-1.55-43.78-5.07A148.09,148.09,0,0,0,376.9,439c-1.61-3.83-3.38-7.58-5.24-11.28,15.83,4.48,31.63,8.3,47.47,9.1.32.72.63,1.45.94,2.18A148.46,148.46,0,0,1,430.78,481Z"/><path class="cls-4" d="M419.13,436.84c-15.84-.8-31.64-4.62-47.47-9.1-7.12-14.27-15.51-27.9-21.06-42.9-1-2.68-1.88-5.39-2.67-8.14,16,4.58,31.82,9.68,47.7,12.91C402.38,405.86,412.06,420.72,419.13,436.84Z"/><path class="cls-3" d="M371.66,427.74C355,423,338.22,417.53,321.32,414c-5.08-9.52-10.14-19.05-13.89-29.2a116.46,116.46,0,0,1-5-17.84c1.41.13,2.82.29,4.23.46,13.87,1.71,27.61,5.3,41.3,9.24.79,2.75,1.67,5.46,2.67,8.14C356.15,399.84,364.54,413.47,371.66,427.74Z"/><path class="cls-4" d="M347.93,376.7c-13.69-3.94-27.43-7.53-41.3-9.24-1.41-.17-2.82-.33-4.23-.46a130,130,0,0,1-1.8-38.54q3,.26,6,.63c12.27,1.52,24.44,4.5,36.57,7.88A126.12,126.12,0,0,0,347.93,376.7Z"/><path class="cls-3" d="M395.63,389.61c-15.88-3.23-31.74-8.33-47.7-12.91A126.12,126.12,0,0,1,343.2,337c14.48,4.06,28.88,8.71,43.28,12.2a122.18,122.18,0,0,0,7.28,35.67C394.35,386.44,395,388,395.63,389.61Z"/><path class="cls-4" d="M386.48,349.17c-14.4-3.49-28.8-8.14-43.28-12.2a139.06,139.06,0,0,1,6.31-36.57c13.44,3.9,26.8,8.08,40.18,11.16A135.71,135.71,0,0,0,386.48,349.17Z"/><path class="cls-3" d="M302.4,367a187.1,187.1,0,0,0-43,1.06A130,130,0,0,1,257.28,330a191.52,191.52,0,0,1,43.32-1.52A130,130,0,0,0,302.4,367Z"/><path class="cls-4" d="M309.62,291.11a140,140,0,0,0-9,37.35A191.52,191.52,0,0,0,257.28,330a140.12,140.12,0,0,1,9.42-39.5h0a178.93,178.93,0,0,1,39.93.24C307.62,290.83,308.63,291,309.62,291.11Z"/><path class="cls-3" d="M227.25,220.88c-8.67,14.47-21.45,27.24-31.38,41.13-1.91,2.67-3.73,5.42-5.43,8.24-4.35,1.45-8.69,2.93-13,4.44-11.39,4-22.79,8.07-34.27,11.94A133.75,133.75,0,0,1,157.08,262c6.3-8.8,13.73-17.14,20.54-25.76C193.91,230.58,210.49,225.11,227.25,220.88Z"/><path class="cls-4" d="M274.57,213.08c-7.14,15.41-19.77,28.56-30.61,42.4h0C225.9,259,208,264.36,190.44,270.25c1.7-2.82,3.52-5.57,5.43-8.24,9.93-13.89,22.71-26.66,31.38-41.13h0A258.86,258.86,0,0,1,274.57,213.08Z"/><path class="cls-3" d="M266.7,290.48a140.12,140.12,0,0,0-9.42,39.5,320.81,320.81,0,0,0-43.67,9.73,138.89,138.89,0,0,1,6.7-40.26h0A282.4,282.4,0,0,1,266.7,290.48Z"/><path class="cls-3" d="M244,255.49c-1.71,2.16-3.34,4.32-4.92,6.52a135.84,135.84,0,0,0-18.73,37.43h0c-14.46,3.93-28.78,8.7-42.86,13.61l-4.26,1.49a138.44,138.44,0,0,1,17.25-44.3C208,264.36,225.9,259,244,255.49Z"/><path class="cls-4" d="M290.58,251.15c-2.91,3.57-5.75,7.17-8.38,10.86a134.23,134.23,0,0,0-15.5,28.46h0a282.4,282.4,0,0,0-46.39,9A135.84,135.84,0,0,1,239,262c1.58-2.2,3.21-4.36,4.92-6.52h0A214.92,214.92,0,0,1,290.58,251.15Z"/><path class="cls-3" d="M349.51,300.4A139.06,139.06,0,0,0,343.2,337c-12.13-3.38-24.3-6.36-36.57-7.88q-3-.37-6-.63a140,140,0,0,1,9-37.35C323,293,336.29,296.57,349.51,300.4Z"/><path class="cls-4" d="M365.35,266.68a137,137,0,0,0-15.84,33.72c-13.22-3.83-26.5-7.38-39.89-9.29A134.51,134.51,0,0,1,325.38,262q2-2.73,4.05-5.41C341.46,259.51,353.42,263.19,365.35,266.68Z"/><path class="cls-3" d="M403.07,275.84a138.87,138.87,0,0,0-13.38,35.72c-13.38-3.08-26.74-7.26-40.18-11.16a137,137,0,0,1,15.84-33.72C377.94,270.35,390.5,273.79,403.07,275.84Z"/><path class="cls-4" d="M429.83,239.28c-6.11,7.56-12.56,15-18.12,22.73a132.86,132.86,0,0,0-8.64,13.83c-12.57-2-25.13-5.49-37.72-9.16,1-1.58,2.1-3.14,3.2-4.67,6.62-9.25,14.5-18,21.57-27.09C403.34,237.93,416.56,239.84,429.83,239.28Z"/><path class="cls-3" d="M329.43,256.6q-2.1,2.68-4.05,5.41a134.51,134.51,0,0,0-15.76,29.1c-1-.14-2-.28-3-.4a178.93,178.93,0,0,0-39.93-.24A134.23,134.23,0,0,1,282.2,262c2.63-3.69,5.47-7.29,8.38-10.86,5.34.14,10.7.52,16.05,1.18A207.23,207.23,0,0,1,329.43,256.6Z"/><path class="cls-4" d="M354.15,225c-7.26,10.95-16.57,21.05-24.72,31.6a207.23,207.23,0,0,0-22.8-4.27c-5.35-.66-10.71-1-16.05-1.18,9.39-11.56,19.51-22.87,26-35.66C329.17,217.8,341.68,221.34,354.15,225Z"/><path class="cls-3" d="M316.57,215.49c-6.48,12.79-16.6,24.1-26,35.66A214.92,214.92,0,0,0,244,255.48c10.84-13.84,23.47-27,30.61-42.4a173.68,173.68,0,0,1,32.06.88C310,214.37,313.26,214.9,316.57,215.49Z"/><path class="cls-4" d="M323,195.13a61.24,61.24,0,0,1-6.45,20.36c-3.31-.59-6.62-1.12-9.94-1.53a173.68,173.68,0,0,0-32.06-.88,59.6,59.6,0,0,0,5.28-18,58.59,58.59,0,0,0-1.29-20.62,170.23,170.23,0,0,1,28.07,1.07c5.31.66,10.6,1.59,15.88,2.71A56.88,56.88,0,0,1,323,195.13Z"/><path class="cls-4" d="M408.57,199.88c-2.79,13.07-10.07,24.28-18.45,35-12-2.74-23.95-6.39-36-9.92,6.05-9.11,10.67-18.82,12-29.87.2-1.62.33-3.23.38-4.85C380.58,194.35,394.56,198.1,408.57,199.88Z"/><path class="cls-3" d="M452.19,197.39c-2.64,16-12,29.12-22.36,41.89-13.27.56-26.49-1.35-39.71-4.36,8.38-10.76,15.66-22,18.45-35,12.3,1.59,24.62,1.67,37-.86C447.8,198.57,450,198,452.19,197.39Z"/><path class="cls-4" d="M452.53,195.13c-.09.76-.2,1.51-.34,2.26-2.19.64-4.39,1.18-6.62,1.63-12.38,2.53-24.7,2.45-37,.86.32-1.56.6-3.14.79-4.75,1.46-11.77-1.16-23.53-6-34.37,14.05,2.26,28.09,2.77,42.23-.12l.82-.17C451.32,171.4,454,183.25,452.53,195.13Z"/><path class="cls-3" d="M366.57,190.28c-.05,1.62-.18,3.23-.38,4.85-1.37,11.05-6,20.76-12,29.87-12.47-3.66-25-7.2-37.58-9.51A61.24,61.24,0,0,0,323,195.13a56.88,56.88,0,0,0-.51-16.84C337.28,181.42,352,186,366.57,190.28Z"/><path class="cls-4" d="M366.57,190.28c-14.62-4.25-29.29-8.86-44.06-12-2.22-12.62-8.25-24.71-15.7-35.11-1.57-2.2-3.21-4.34-4.87-6.48,1.56.15,3.12.32,4.69.51,15.66,1.94,31.17,6.25,46.61,10.78C361.33,160.65,367,175.36,366.57,190.28Z"/><path class="cls-3" d="M279.85,195.13a59.6,59.6,0,0,1-5.28,18,258.86,258.86,0,0,0-47.32,7.79c4.75-7.92,8.27-16.34,9.43-25.74a55.77,55.77,0,0,0-.19-14.83,236.4,236.4,0,0,1,42.07-5.79A58.59,58.59,0,0,1,279.85,195.13Z"/><path class="cls-3" d="M198.24,190.93c.55-12.28-3.13-24.43-8.92-35.43,10.82-3.64,21.75-7.08,32.77-10,7.06,10.43,12.62,22.4,14.4,34.82C223.62,183.17,210.86,186.86,198.24,190.93Z"/><path class="cls-4" d="M278.56,174.51a236.4,236.4,0,0,0-42.07,5.79c-1.78-12.42-7.34-24.39-14.4-34.82a291.37,291.37,0,0,1,37.52-7.69c1.37,1.77,2.72,3.56,4,5.39C270.34,152.54,275.89,163.26,278.56,174.51Z"/><path class="cls-3" d="M322.51,178.29c-5.28-1.12-10.57-2-15.88-2.71a170.23,170.23,0,0,0-28.07-1.07c-2.67-11.25-8.22-22-14.92-31.33-1.31-1.83-2.66-3.62-4-5.39a188.48,188.48,0,0,1,42.33-1.09c1.66,2.14,3.3,4.28,4.87,6.48C314.26,153.58,320.29,165.67,322.51,178.29Z"/><path class="cls-4" d="M301.94,136.7a188.48,188.48,0,0,0-42.33,1.09c-6.43-8.3-13.34-16.24-18.36-25.51a75.73,75.73,0,0,1-4.07-8.88,235.35,235.35,0,0,1,41.22-5.64,79.92,79.92,0,0,0,6,14.52C289.21,121.14,295.75,128.79,301.94,136.7Z"/><path class="cls-3" d="M409.36,195.13c-.19,1.61-.47,3.19-.79,4.75-14-1.78-28-5.53-42-9.6.46-14.92-5.24-29.63-13.33-42.29,16.76,4.91,33.42,10.08,50.1,12.77C408.2,171.6,410.82,183.36,409.36,195.13Z"/><path class="cls-4" d="M403.34,160.76c-16.68-2.69-33.34-7.86-50.1-12.77-1-1.64-2.13-3.24-3.25-4.81-7.41-10.36-16.32-19.64-22.4-30.9a77.55,77.55,0,0,1-4.74-10.66c16.64,3.55,33.13,8.95,49.58,13.58h0c6,10,14,18.53,20.72,28A102.19,102.19,0,0,1,403.34,160.76Z"/><path class="cls-3" d="M446.39,160.47l-.82.17c-14.14,2.89-28.18,2.38-42.23.12a102.19,102.19,0,0,0-10.19-17.58c-6.75-9.44-14.75-18-20.72-28,16.42,4.63,32.8,8.49,49.25,9,4.76,6.41,10,12.49,14.64,19A101.39,101.39,0,0,1,446.39,160.47Z"/><path class="cls-4" d="M372.43,115.21h0c-.58-1-1.13-1.93-1.67-2.93-6-11-9-23.57-10.25-36.15q-.13-1.41-.24-2.82c14.86,4.38,29.67,8.66,44.49,10.93a89.36,89.36,0,0,0,9.17,28,98.92,98.92,0,0,0,7.75,11.92C405.23,123.69,388.85,119.84,372.43,115.21Z"/><path class="cls-3" d="M353.24,148c-15.44-4.53-30.95-8.84-46.61-10.78-1.57-.19-3.13-.36-4.69-.51-6.19-7.91-12.73-15.56-17.52-24.42a79.92,79.92,0,0,1-6-14.52,171.08,171.08,0,0,1,28.23,1.08c5.42.67,10.83,1.63,16.22,2.78a77.55,77.55,0,0,0,4.74,10.66c6.08,11.26,15,20.54,22.4,30.9C351.11,144.75,352.2,146.35,353.24,148Z"/><path class="cls-3" d="M278.4,97.76a235.35,235.35,0,0,0-41.22,5.64A105.13,105.13,0,0,1,231,76.13a81.14,81.14,0,0,1-.37-9.59,253.27,253.27,0,0,1,43.41-6.93,96.54,96.54,0,0,0,.13,16.52A110.94,110.94,0,0,0,278.4,97.76Z"/><path class="cls-4" d="M322.85,101.62c-5.39-1.15-10.8-2.11-16.22-2.78a171.08,171.08,0,0,0-28.23-1.08,110.94,110.94,0,0,1-4.22-21.63,96.54,96.54,0,0,1-.13-16.52,174.09,174.09,0,0,1,32.58.85q5.06.63,10.1,1.56a127.87,127.87,0,0,0,.62,14.11A107.25,107.25,0,0,0,322.85,101.62Z"/><path class="cls-3" d="M372.43,115.2c-16.45-4.63-32.94-10-49.58-13.58a107.25,107.25,0,0,1-5.5-25.49A127.87,127.87,0,0,1,316.73,62c14.61,2.67,29.1,7,43.54,11.28.07,1,.15,1.88.24,2.83,1.27,12.58,4.29,25.13,10.25,36.15C371.3,113.27,371.85,114.24,372.43,115.2Z"/><path class="cls-4" d="M360.27,73.3C345.83,69,331.34,64.69,316.73,62a137,137,0,0,1,5.61-37.26c13.55,2.86,27,7,40.43,10.92A133.51,133.51,0,0,0,360.27,73.3Z"/><path class="cls-3" d="M481.63,145.7c-30.45-6.64-59.95-21.51-59.95-21.51a98.92,98.92,0,0,1-7.75-11.92,89.36,89.36,0,0,1-9.17-28,.06.06,0,0,0,0,0c15.89,9.47,43.51,8.74,43.51,8.74a82.6,82.6,0,0,0,6.09,14.62c6.25,11.57,15.41,21.13,23,31.77C478.86,141.39,480.28,143.51,481.63,145.7Z"/><path class="cls-3" d="M404.76,84.23C389.94,82,375.13,77.68,360.27,73.3a133.51,133.51,0,0,1,2.5-37.63L368,37.18c1.36.4,2.73.79,4.09,1.17,2.09.59,4.19,1.17,6.28,1.73l3.11.82q4.67,1.22,9.33,2.27c.77.18,1.55.35,2.33.51s1.56.34,2.33.49l1.51.3,1.66.32c.5.1,1,.2,1.49.28,1.38.25,2.75.48,4.13.7a131.65,131.65,0,0,0-.53,30.35c.26,2.7.62,5.39,1.06,8.07A.06.06,0,0,1,404.76,84.23Z"/><path class="cls-3" d="M375,.8a139.65,139.65,0,0,0-12.25,34.87c-13.41-3.94-26.88-8-40.43-10.92a138.33,138.33,0,0,1,15.57-34.6C350.33-6.52,362.68-2.6,375,.8Z"/><path class="cls-3" d="M449.34,16.23a141.68,141.68,0,0,0-6.09,36.29c0,.15,0,.3,0,.45a.08.08,0,0,0,0,0c-.57-1.13-2.79-1.92-3.88-2.59-6.07-3.77-33.79-4.7-35.12-4.58a136.76,136.76,0,0,1,4.83-22.23,138.38,138.38,0,0,1,5.46-14.87l0-.1C424.32,14.41,438.17,10.79,449.34,16.23Z"/><path class="cls-4" d="M414.51,8.65a138.38,138.38,0,0,0-5.46,14.87,136.76,136.76,0,0,0-4.83,22.23v0h-.05c-1.36-.22-2.72-.44-4.08-.69-.5-.08-1-.18-1.49-.28l-1.66-.32-1.51-.3-2.33-.49c-.78-.16-1.55-.34-2.33-.51q-4.66-1.05-9.33-2.27l-3.11-.82c-2.09-.56-4.19-1.14-6.28-1.73-1.36-.38-2.73-.77-4.09-1.17l-5.19-1.51A139.65,139.65,0,0,1,375,.8c1.36.38,2.73.75,4.09,1.11l3.31.87.79.2c1.36.35,2.73.69,4.09,1l.06,0c1.33.32,2.66.63,4,.92,1.57.36,3.14.69,4.71,1l1.47.29c3.41.66,6.82,1.23,10.23,1.69l1.69.21.76.09,1.83.2C412.86,8.5,413.69,8.58,414.51,8.65Z"/><path class="cls-3" d="M390.12,234.92c-7.07,9.09-14.95,17.84-21.57,27.09-1.1,1.53-2.16,3.09-3.2,4.67-11.93-3.49-23.89-7.17-35.92-10.08,8.15-10.55,17.46-20.65,24.72-31.6C366.17,228.53,378.15,232.18,390.12,234.92Z"/></g></svg>