<svg width="75" height="122" viewBox="0 0 75 122" fill="none" xmlns="http://www.w3.org/2000/svg">
<path d="M-4.71484 2.4524L0.213728 0.32858V4.57623L-4.71484 2.4524Z" fill="url(#paint0_linear_352_529)"/>
<path d="M9.85645 2.4524L14.785 0.32858V4.57623L9.85645 2.4524Z" fill="url(#paint1_linear_352_529)"/>
<path d="M24.4277 2.4524L29.3563 0.32858V4.57623L24.4277 2.4524Z" fill="url(#paint2_linear_352_529)"/>
<path d="M38.999 2.4524L43.9276 0.32858V4.57623L38.999 2.4524Z" fill="url(#paint3_linear_352_529)"/>
<path d="M53.5703 2.4524L58.4989 0.32858V4.57623L53.5703 2.4524Z" fill="url(#paint4_linear_352_529)"/>
<path d="M68.1416 2.4524L73.0702 0.32858V4.57623L68.1416 2.4524Z" fill="url(#paint5_linear_352_529)"/>
<path d="M-4.71484 15.3572L0.213728 13.2334V17.481L-4.71484 15.3572Z" fill="url(#paint6_linear_352_529)"/>
<path d="M9.85645 15.3572L14.785 13.2334V17.481L9.85645 15.3572Z" fill="url(#paint7_linear_352_529)"/>
<path d="M24.4277 15.3572L29.3563 13.2334V17.481L24.4277 15.3572Z" fill="url(#paint8_linear_352_529)"/>
<path d="M38.999 15.3572L43.9276 13.2334V17.481L38.999 15.3572Z" fill="url(#paint9_linear_352_529)"/>
<path d="M53.5703 15.3572L58.4989 13.2334V17.481L53.5703 15.3572Z" fill="url(#paint10_linear_352_529)"/>
<path d="M68.1416 15.3572L73.0702 13.2334V17.481L68.1416 15.3572Z" fill="url(#paint11_linear_352_529)"/>
<path d="M-4.71484 28.262L0.213728 26.1382V30.3858L-4.71484 28.262Z" fill="url(#paint12_linear_352_529)"/>
<path d="M9.85645 28.262L14.785 26.1382V30.3858L9.85645 28.262Z" fill="url(#paint13_linear_352_529)"/>
<path d="M24.4277 28.262L29.3563 26.1382V30.3858L24.4277 28.262Z" fill="url(#paint14_linear_352_529)"/>
<path d="M38.999 28.262L43.9276 26.1382V30.3858L38.999 28.262Z" fill="url(#paint15_linear_352_529)"/>
<path d="M53.5703 28.262L58.4989 26.1382V30.3858L53.5703 28.262Z" fill="url(#paint16_linear_352_529)"/>
<path d="M68.1416 28.262L73.0702 26.1382V30.3858L68.1416 28.262Z" fill="url(#paint17_linear_352_529)"/>
<path d="M-4.71484 41.1668L0.213728 39.0429V43.2906L-4.71484 41.1668Z" fill="url(#paint18_linear_352_529)"/>
<path d="M9.85645 41.1668L14.785 39.0429V43.2906L9.85645 41.1668Z" fill="url(#paint19_linear_352_529)"/>
<path d="M24.4277 41.1668L29.3563 39.0429V43.2906L24.4277 41.1668Z" fill="url(#paint20_linear_352_529)"/>
<path d="M38.999 41.1668L43.9276 39.0429V43.2906L38.999 41.1668Z" fill="url(#paint21_linear_352_529)"/>
<path d="M53.5703 41.1668L58.4989 39.0429V43.2906L53.5703 41.1668Z" fill="url(#paint22_linear_352_529)"/>
<path d="M68.1416 41.1668L73.0702 39.0429V43.2906L68.1416 41.1668Z" fill="url(#paint23_linear_352_529)"/>
<path d="M-4.71484 54.0713L0.213728 51.9475V56.1951L-4.71484 54.0713Z" fill="url(#paint24_linear_352_529)"/>
<path d="M9.85645 54.0713L14.785 51.9475V56.1951L9.85645 54.0713Z" fill="url(#paint25_linear_352_529)"/>
<path d="M24.4277 54.0713L29.3563 51.9475V56.1951L24.4277 54.0713Z" fill="url(#paint26_linear_352_529)"/>
<path d="M38.999 54.0713L43.9276 51.9475V56.1951L38.999 54.0713Z" fill="url(#paint27_linear_352_529)"/>
<path d="M53.5703 54.0713L58.4989 51.9475V56.1951L53.5703 54.0713Z" fill="url(#paint28_linear_352_529)"/>
<path d="M68.1416 54.0713L73.0702 51.9475V56.1951L68.1416 54.0713Z" fill="url(#paint29_linear_352_529)"/>
<path d="M-4.71484 66.9761L0.213728 64.8523V69.0999L-4.71484 66.9761Z" fill="url(#paint30_linear_352_529)"/>
<path d="M9.85645 66.9761L14.785 64.8523V69.0999L9.85645 66.9761Z" fill="url(#paint31_linear_352_529)"/>
<path d="M24.4277 66.9761L29.3563 64.8523V69.0999L24.4277 66.9761Z" fill="url(#paint32_linear_352_529)"/>
<path d="M38.999 66.9761L43.9276 64.8523V69.0999L38.999 66.9761Z" fill="url(#paint33_linear_352_529)"/>
<path d="M53.5703 66.9761L58.4989 64.8523V69.0999L53.5703 66.9761Z" fill="url(#paint34_linear_352_529)"/>
<path d="M68.1416 66.9761L73.0702 64.8523V69.0999L68.1416 66.9761Z" fill="url(#paint35_linear_352_529)"/>
<path d="M-4.71484 79.8809L0.213728 77.757V82.0047L-4.71484 79.8809Z" fill="url(#paint36_linear_352_529)"/>
<path d="M9.85645 79.8809L14.785 77.757V82.0047L9.85645 79.8809Z" fill="url(#paint37_linear_352_529)"/>
<path d="M24.4277 79.8809L29.3563 77.757V82.0047L24.4277 79.8809Z" fill="url(#paint38_linear_352_529)"/>
<path d="M38.999 79.8809L43.9276 77.757V82.0047L38.999 79.8809Z" fill="url(#paint39_linear_352_529)"/>
<path d="M53.5703 79.8809L58.4989 77.757V82.0047L53.5703 79.8809Z" fill="url(#paint40_linear_352_529)"/>
<path d="M68.1416 79.8809L73.0702 77.757V82.0047L68.1416 79.8809Z" fill="url(#paint41_linear_352_529)"/>
<path d="M-4.71484 92.7857L0.213728 90.6618V94.9095L-4.71484 92.7857Z" fill="url(#paint42_linear_352_529)"/>
<path d="M9.85645 92.7857L14.785 90.6618V94.9095L9.85645 92.7857Z" fill="url(#paint43_linear_352_529)"/>
<path d="M24.4277 92.7857L29.3563 90.6618V94.9095L24.4277 92.7857Z" fill="url(#paint44_linear_352_529)"/>
<path d="M38.999 92.7857L43.9276 90.6618V94.9095L38.999 92.7857Z" fill="url(#paint45_linear_352_529)"/>
<path d="M53.5703 92.7857L58.4989 90.6618V94.9095L53.5703 92.7857Z" fill="url(#paint46_linear_352_529)"/>
<path d="M68.1416 92.7857L73.0702 90.6618V94.9095L68.1416 92.7857Z" fill="url(#paint47_linear_352_529)"/>
<path d="M-4.71484 105.69L0.213728 103.567V107.814L-4.71484 105.69Z" fill="url(#paint48_linear_352_529)"/>
<path d="M9.85645 105.69L14.785 103.567V107.814L9.85645 105.69Z" fill="url(#paint49_linear_352_529)"/>
<path d="M24.4277 105.69L29.3563 103.567V107.814L24.4277 105.69Z" fill="url(#paint50_linear_352_529)"/>
<path d="M38.999 105.69L43.9276 103.567V107.814L38.999 105.69Z" fill="url(#paint51_linear_352_529)"/>
<path d="M53.5703 105.69L58.4989 103.567V107.814L53.5703 105.69Z" fill="url(#paint52_linear_352_529)"/>
<path d="M68.1416 105.69L73.0702 103.567V107.814L68.1416 105.69Z" fill="url(#paint53_linear_352_529)"/>
<path d="M-4.71484 118.595L0.213728 116.471V120.719L-4.71484 118.595Z" fill="url(#paint54_linear_352_529)"/>
<path d="M9.85645 118.595L14.785 116.471V120.719L9.85645 118.595Z" fill="url(#paint55_linear_352_529)"/>
<path d="M24.4277 118.595L29.3563 116.471V120.719L24.4277 118.595Z" fill="url(#paint56_linear_352_529)"/>
<path d="M38.999 118.595L43.9276 116.471V120.719L38.999 118.595Z" fill="url(#paint57_linear_352_529)"/>
<path d="M53.5703 118.595L58.4989 116.471V120.719L53.5703 118.595Z" fill="url(#paint58_linear_352_529)"/>
<path d="M68.1416 118.595L73.0702 116.471V120.719L68.1416 118.595Z" fill="url(#paint59_linear_352_529)"/>
<defs>
<linearGradient id="paint0_linear_352_529" x1="-1.42913" y1="4.90479" x2="-1.42913" y2="2.3365e-05" gradientUnits="userSpaceOnUse">
<stop stop-color="#330A48"/>
<stop offset="1" stop-color="#8F1757"/>
</linearGradient>
<linearGradient id="paint1_linear_352_529" x1="13.1422" y1="4.90479" x2="13.1422" y2="2.3365e-05" gradientUnits="userSpaceOnUse">
<stop stop-color="#330A48"/>
<stop offset="1" stop-color="#8F1757"/>
</linearGradient>
<linearGradient id="paint2_linear_352_529" x1="27.7134" y1="4.90479" x2="27.7134" y2="2.3365e-05" gradientUnits="userSpaceOnUse">
<stop stop-color="#330A48"/>
<stop offset="1" stop-color="#8F1757"/>
</linearGradient>
<linearGradient id="paint3_linear_352_529" x1="42.2847" y1="4.90479" x2="42.2847" y2="2.3365e-05" gradientUnits="userSpaceOnUse">
<stop stop-color="#330A48"/>
<stop offset="1" stop-color="#8F1757"/>
</linearGradient>
<linearGradient id="paint4_linear_352_529" x1="56.856" y1="4.90479" x2="56.856" y2="2.3365e-05" gradientUnits="userSpaceOnUse">
<stop stop-color="#330A48"/>
<stop offset="1" stop-color="#8F1757"/>
</linearGradient>
<linearGradient id="paint5_linear_352_529" x1="71.4273" y1="4.90479" x2="71.4273" y2="2.3365e-05" gradientUnits="userSpaceOnUse">
<stop stop-color="#330A48"/>
<stop offset="1" stop-color="#8F1757"/>
</linearGradient>
<linearGradient id="paint6_linear_352_529" x1="-1.42913" y1="17.8096" x2="-1.42913" y2="12.9048" gradientUnits="userSpaceOnUse">
<stop stop-color="#330A48"/>
<stop offset="1" stop-color="#8F1757"/>
</linearGradient>
<linearGradient id="paint7_linear_352_529" x1="13.1422" y1="17.8096" x2="13.1422" y2="12.9048" gradientUnits="userSpaceOnUse">
<stop stop-color="#330A48"/>
<stop offset="1" stop-color="#8F1757"/>
</linearGradient>
<linearGradient id="paint8_linear_352_529" x1="27.7134" y1="17.8096" x2="27.7134" y2="12.9048" gradientUnits="userSpaceOnUse">
<stop stop-color="#330A48"/>
<stop offset="1" stop-color="#8F1757"/>
</linearGradient>
<linearGradient id="paint9_linear_352_529" x1="42.2847" y1="17.8096" x2="42.2847" y2="12.9048" gradientUnits="userSpaceOnUse">
<stop stop-color="#330A48"/>
<stop offset="1" stop-color="#8F1757"/>
</linearGradient>
<linearGradient id="paint10_linear_352_529" x1="56.856" y1="17.8096" x2="56.856" y2="12.9048" gradientUnits="userSpaceOnUse">
<stop stop-color="#330A48"/>
<stop offset="1" stop-color="#8F1757"/>
</linearGradient>
<linearGradient id="paint11_linear_352_529" x1="71.4273" y1="17.8096" x2="71.4273" y2="12.9048" gradientUnits="userSpaceOnUse">
<stop stop-color="#330A48"/>
<stop offset="1" stop-color="#8F1757"/>
</linearGradient>
<linearGradient id="paint12_linear_352_529" x1="-1.42913" y1="30.7144" x2="-1.42913" y2="25.8096" gradientUnits="userSpaceOnUse">
<stop stop-color="#330A48"/>
<stop offset="1" stop-color="#8F1757"/>
</linearGradient>
<linearGradient id="paint13_linear_352_529" x1="13.1422" y1="30.7144" x2="13.1422" y2="25.8096" gradientUnits="userSpaceOnUse">
<stop stop-color="#330A48"/>
<stop offset="1" stop-color="#8F1757"/>
</linearGradient>
<linearGradient id="paint14_linear_352_529" x1="27.7134" y1="30.7144" x2="27.7134" y2="25.8096" gradientUnits="userSpaceOnUse">
<stop stop-color="#330A48"/>
<stop offset="1" stop-color="#8F1757"/>
</linearGradient>
<linearGradient id="paint15_linear_352_529" x1="42.2847" y1="30.7144" x2="42.2847" y2="25.8096" gradientUnits="userSpaceOnUse">
<stop stop-color="#330A48"/>
<stop offset="1" stop-color="#8F1757"/>
</linearGradient>
<linearGradient id="paint16_linear_352_529" x1="56.856" y1="30.7144" x2="56.856" y2="25.8096" gradientUnits="userSpaceOnUse">
<stop stop-color="#330A48"/>
<stop offset="1" stop-color="#8F1757"/>
</linearGradient>
<linearGradient id="paint17_linear_352_529" x1="71.4273" y1="30.7144" x2="71.4273" y2="25.8096" gradientUnits="userSpaceOnUse">
<stop stop-color="#330A48"/>
<stop offset="1" stop-color="#8F1757"/>
</linearGradient>
<linearGradient id="paint18_linear_352_529" x1="-1.42913" y1="43.6191" x2="-1.42913" y2="38.7144" gradientUnits="userSpaceOnUse">
<stop stop-color="#330A48"/>
<stop offset="1" stop-color="#8F1757"/>
</linearGradient>
<linearGradient id="paint19_linear_352_529" x1="13.1422" y1="43.6191" x2="13.1422" y2="38.7144" gradientUnits="userSpaceOnUse">
<stop stop-color="#330A48"/>
<stop offset="1" stop-color="#8F1757"/>
</linearGradient>
<linearGradient id="paint20_linear_352_529" x1="27.7134" y1="43.6191" x2="27.7134" y2="38.7144" gradientUnits="userSpaceOnUse">
<stop stop-color="#330A48"/>
<stop offset="1" stop-color="#8F1757"/>
</linearGradient>
<linearGradient id="paint21_linear_352_529" x1="42.2847" y1="43.6191" x2="42.2847" y2="38.7144" gradientUnits="userSpaceOnUse">
<stop stop-color="#330A48"/>
<stop offset="1" stop-color="#8F1757"/>
</linearGradient>
<linearGradient id="paint22_linear_352_529" x1="56.856" y1="43.6191" x2="56.856" y2="38.7144" gradientUnits="userSpaceOnUse">
<stop stop-color="#330A48"/>
<stop offset="1" stop-color="#8F1757"/>
</linearGradient>
<linearGradient id="paint23_linear_352_529" x1="71.4273" y1="43.6191" x2="71.4273" y2="38.7144" gradientUnits="userSpaceOnUse">
<stop stop-color="#330A48"/>
<stop offset="1" stop-color="#8F1757"/>
</linearGradient>
<linearGradient id="paint24_linear_352_529" x1="-1.42913" y1="56.5237" x2="-1.42913" y2="51.6189" gradientUnits="userSpaceOnUse">
<stop stop-color="#330A48"/>
<stop offset="1" stop-color="#8F1757"/>
</linearGradient>
<linearGradient id="paint25_linear_352_529" x1="13.1422" y1="56.5237" x2="13.1422" y2="51.6189" gradientUnits="userSpaceOnUse">
<stop stop-color="#330A48"/>
<stop offset="1" stop-color="#8F1757"/>
</linearGradient>
<linearGradient id="paint26_linear_352_529" x1="27.7134" y1="56.5237" x2="27.7134" y2="51.6189" gradientUnits="userSpaceOnUse">
<stop stop-color="#330A48"/>
<stop offset="1" stop-color="#8F1757"/>
</linearGradient>
<linearGradient id="paint27_linear_352_529" x1="42.2847" y1="56.5237" x2="42.2847" y2="51.6189" gradientUnits="userSpaceOnUse">
<stop stop-color="#330A48"/>
<stop offset="1" stop-color="#8F1757"/>
</linearGradient>
<linearGradient id="paint28_linear_352_529" x1="56.856" y1="56.5237" x2="56.856" y2="51.6189" gradientUnits="userSpaceOnUse">
<stop stop-color="#330A48"/>
<stop offset="1" stop-color="#8F1757"/>
</linearGradient>
<linearGradient id="paint29_linear_352_529" x1="71.4273" y1="56.5237" x2="71.4273" y2="51.6189" gradientUnits="userSpaceOnUse">
<stop stop-color="#330A48"/>
<stop offset="1" stop-color="#8F1757"/>
</linearGradient>
<linearGradient id="paint30_linear_352_529" x1="-1.42913" y1="69.4285" x2="-1.42913" y2="64.5237" gradientUnits="userSpaceOnUse">
<stop stop-color="#330A48"/>
<stop offset="1" stop-color="#8F1757"/>
</linearGradient>
<linearGradient id="paint31_linear_352_529" x1="13.1422" y1="69.4285" x2="13.1422" y2="64.5237" gradientUnits="userSpaceOnUse">
<stop stop-color="#330A48"/>
<stop offset="1" stop-color="#8F1757"/>
</linearGradient>
<linearGradient id="paint32_linear_352_529" x1="27.7134" y1="69.4285" x2="27.7134" y2="64.5237" gradientUnits="userSpaceOnUse">
<stop stop-color="#330A48"/>
<stop offset="1" stop-color="#8F1757"/>
</linearGradient>
<linearGradient id="paint33_linear_352_529" x1="42.2847" y1="69.4285" x2="42.2847" y2="64.5237" gradientUnits="userSpaceOnUse">
<stop stop-color="#330A48"/>
<stop offset="1" stop-color="#8F1757"/>
</linearGradient>
<linearGradient id="paint34_linear_352_529" x1="56.856" y1="69.4285" x2="56.856" y2="64.5237" gradientUnits="userSpaceOnUse">
<stop stop-color="#330A48"/>
<stop offset="1" stop-color="#8F1757"/>
</linearGradient>
<linearGradient id="paint35_linear_352_529" x1="71.4273" y1="69.4285" x2="71.4273" y2="64.5237" gradientUnits="userSpaceOnUse">
<stop stop-color="#330A48"/>
<stop offset="1" stop-color="#8F1757"/>
</linearGradient>
<linearGradient id="paint36_linear_352_529" x1="-1.42913" y1="82.3333" x2="-1.42913" y2="77.4285" gradientUnits="userSpaceOnUse">
<stop stop-color="#330A48"/>
<stop offset="1" stop-color="#8F1757"/>
</linearGradient>
<linearGradient id="paint37_linear_352_529" x1="13.1422" y1="82.3333" x2="13.1422" y2="77.4285" gradientUnits="userSpaceOnUse">
<stop stop-color="#330A48"/>
<stop offset="1" stop-color="#8F1757"/>
</linearGradient>
<linearGradient id="paint38_linear_352_529" x1="27.7134" y1="82.3333" x2="27.7134" y2="77.4285" gradientUnits="userSpaceOnUse">
<stop stop-color="#330A48"/>
<stop offset="1" stop-color="#8F1757"/>
</linearGradient>
<linearGradient id="paint39_linear_352_529" x1="42.2847" y1="82.3333" x2="42.2847" y2="77.4285" gradientUnits="userSpaceOnUse">
<stop stop-color="#330A48"/>
<stop offset="1" stop-color="#8F1757"/>
</linearGradient>
<linearGradient id="paint40_linear_352_529" x1="56.856" y1="82.3333" x2="56.856" y2="77.4285" gradientUnits="userSpaceOnUse">
<stop stop-color="#330A48"/>
<stop offset="1" stop-color="#8F1757"/>
</linearGradient>
<linearGradient id="paint41_linear_352_529" x1="71.4273" y1="82.3333" x2="71.4273" y2="77.4285" gradientUnits="userSpaceOnUse">
<stop stop-color="#330A48"/>
<stop offset="1" stop-color="#8F1757"/>
</linearGradient>
<linearGradient id="paint42_linear_352_529" x1="-1.42913" y1="95.238" x2="-1.42913" y2="90.3333" gradientUnits="userSpaceOnUse">
<stop stop-color="#330A48"/>
<stop offset="1" stop-color="#8F1757"/>
</linearGradient>
<linearGradient id="paint43_linear_352_529" x1="13.1422" y1="95.238" x2="13.1422" y2="90.3333" gradientUnits="userSpaceOnUse">
<stop stop-color="#330A48"/>
<stop offset="1" stop-color="#8F1757"/>
</linearGradient>
<linearGradient id="paint44_linear_352_529" x1="27.7134" y1="95.238" x2="27.7134" y2="90.3333" gradientUnits="userSpaceOnUse">
<stop stop-color="#330A48"/>
<stop offset="1" stop-color="#8F1757"/>
</linearGradient>
<linearGradient id="paint45_linear_352_529" x1="42.2847" y1="95.238" x2="42.2847" y2="90.3333" gradientUnits="userSpaceOnUse">
<stop stop-color="#330A48"/>
<stop offset="1" stop-color="#8F1757"/>
</linearGradient>
<linearGradient id="paint46_linear_352_529" x1="56.856" y1="95.238" x2="56.856" y2="90.3333" gradientUnits="userSpaceOnUse">
<stop stop-color="#330A48"/>
<stop offset="1" stop-color="#8F1757"/>
</linearGradient>
<linearGradient id="paint47_linear_352_529" x1="71.4273" y1="95.238" x2="71.4273" y2="90.3333" gradientUnits="userSpaceOnUse">
<stop stop-color="#330A48"/>
<stop offset="1" stop-color="#8F1757"/>
</linearGradient>
<linearGradient id="paint48_linear_352_529" x1="-1.42913" y1="108.143" x2="-1.42913" y2="103.238" gradientUnits="userSpaceOnUse">
<stop stop-color="#330A48"/>
<stop offset="1" stop-color="#8F1757"/>
</linearGradient>
<linearGradient id="paint49_linear_352_529" x1="13.1422" y1="108.143" x2="13.1422" y2="103.238" gradientUnits="userSpaceOnUse">
<stop stop-color="#330A48"/>
<stop offset="1" stop-color="#8F1757"/>
</linearGradient>
<linearGradient id="paint50_linear_352_529" x1="27.7134" y1="108.143" x2="27.7134" y2="103.238" gradientUnits="userSpaceOnUse">
<stop stop-color="#330A48"/>
<stop offset="1" stop-color="#8F1757"/>
</linearGradient>
<linearGradient id="paint51_linear_352_529" x1="42.2847" y1="108.143" x2="42.2847" y2="103.238" gradientUnits="userSpaceOnUse">
<stop stop-color="#330A48"/>
<stop offset="1" stop-color="#8F1757"/>
</linearGradient>
<linearGradient id="paint52_linear_352_529" x1="56.856" y1="108.143" x2="56.856" y2="103.238" gradientUnits="userSpaceOnUse">
<stop stop-color="#330A48"/>
<stop offset="1" stop-color="#8F1757"/>
</linearGradient>
<linearGradient id="paint53_linear_352_529" x1="71.4273" y1="108.143" x2="71.4273" y2="103.238" gradientUnits="userSpaceOnUse">
<stop stop-color="#330A48"/>
<stop offset="1" stop-color="#8F1757"/>
</linearGradient>
<linearGradient id="paint54_linear_352_529" x1="-1.42913" y1="121.048" x2="-1.42913" y2="116.143" gradientUnits="userSpaceOnUse">
<stop stop-color="#330A48"/>
<stop offset="1" stop-color="#8F1757"/>
</linearGradient>
<linearGradient id="paint55_linear_352_529" x1="13.1422" y1="121.048" x2="13.1422" y2="116.143" gradientUnits="userSpaceOnUse">
<stop stop-color="#330A48"/>
<stop offset="1" stop-color="#8F1757"/>
</linearGradient>
<linearGradient id="paint56_linear_352_529" x1="27.7134" y1="121.048" x2="27.7134" y2="116.143" gradientUnits="userSpaceOnUse">
<stop stop-color="#330A48"/>
<stop offset="1" stop-color="#8F1757"/>
</linearGradient>
<linearGradient id="paint57_linear_352_529" x1="42.2847" y1="121.048" x2="42.2847" y2="116.143" gradientUnits="userSpaceOnUse">
<stop stop-color="#330A48"/>
<stop offset="1" stop-color="#8F1757"/>
</linearGradient>
<linearGradient id="paint58_linear_352_529" x1="56.856" y1="121.048" x2="56.856" y2="116.143" gradientUnits="userSpaceOnUse">
<stop stop-color="#330A48"/>
<stop offset="1" stop-color="#8F1757"/>
</linearGradient>
<linearGradient id="paint59_linear_352_529" x1="71.4273" y1="121.048" x2="71.4273" y2="116.143" gradientUnits="userSpaceOnUse">
<stop stop-color="#330A48"/>
<stop offset="1" stop-color="#8F1757"/>
</linearGradient>
</defs>
</svg>
