<svg width="64" height="35" viewBox="0 0 64 35" fill="none" xmlns="http://www.w3.org/2000/svg">
<path d="M1.50895 33V26H2.11895L5.31895 31.46H4.99895L8.16895 26H8.77895V33H8.06895V27.11H8.23895L5.31895 32.11H4.96895L2.02895 27.11H2.21895V33H1.50895ZM10.2397 33L13.4397 26H14.1697L17.3697 33H16.5897L13.6497 26.43H13.9497L11.0097 33H10.2397ZM11.4997 31.13L11.7197 30.53H15.7897L16.0097 31.13H11.4997ZM18.8277 33V26H21.4477C22.041 26 22.551 26.0967 22.9777 26.29C23.4044 26.4767 23.731 26.75 23.9577 27.11C24.191 27.4633 24.3077 27.8933 24.3077 28.4C24.3077 28.8933 24.191 29.32 23.9577 29.68C23.731 30.0333 23.4044 30.3067 22.9777 30.5C22.551 30.6867 22.041 30.78 21.4477 30.78H19.2377L19.5677 30.44V33H18.8277ZM23.6077 33L21.8077 30.46H22.6077L24.4177 33H23.6077ZM19.5677 30.5L19.2377 30.15H21.4277C22.1277 30.15 22.6577 29.9967 23.0177 29.69C23.3844 29.3833 23.5677 28.9533 23.5677 28.4C23.5677 27.84 23.3844 27.4067 23.0177 27.1C22.6577 26.7933 22.1277 26.64 21.4277 26.64H19.2377L19.5677 26.29V30.5ZM25.2343 33L28.4343 26H29.1643L32.3643 33H31.5843L28.6443 26.43H28.9443L26.0043 33H25.2343ZM26.4943 31.13L26.7143 30.53H30.7843L31.0043 31.13H26.4943ZM34.8307 33V26.64H32.3707V26H38.0307V26.64H35.5707V33H34.8307ZM44.6329 26H45.3629V33H44.6329V26ZM40.2529 33H39.5129V26H40.2529V33ZM44.7029 29.77H40.1729V29.12H44.7029V29.77ZM51.0076 33.06C50.481 33.06 49.991 32.9733 49.5376 32.8C49.091 32.62 48.701 32.37 48.3676 32.05C48.041 31.7233 47.7843 31.3467 47.5976 30.92C47.4176 30.4867 47.3276 30.0133 47.3276 29.5C47.3276 28.9867 47.4176 28.5167 47.5976 28.09C47.7843 27.6567 48.041 27.28 48.3676 26.96C48.701 26.6333 49.091 26.3833 49.5376 26.21C49.9843 26.03 50.4743 25.94 51.0076 25.94C51.5343 25.94 52.021 26.03 52.4676 26.21C52.9143 26.3833 53.301 26.63 53.6276 26.95C53.961 27.27 54.2176 27.6467 54.3976 28.08C54.5843 28.5133 54.6776 28.9867 54.6776 29.5C54.6776 30.0133 54.5843 30.4867 54.3976 30.92C54.2176 31.3533 53.961 31.73 53.6276 32.05C53.301 32.37 52.9143 32.62 52.4676 32.8C52.021 32.9733 51.5343 33.06 51.0076 33.06ZM51.0076 32.4C51.4276 32.4 51.8143 32.33 52.1676 32.19C52.5276 32.0433 52.8376 31.84 53.0976 31.58C53.3643 31.3133 53.571 31.0067 53.7176 30.66C53.8643 30.3067 53.9376 29.92 53.9376 29.5C53.9376 29.08 53.8643 28.6967 53.7176 28.35C53.571 27.9967 53.3643 27.69 53.0976 27.43C52.8376 27.1633 52.5276 26.96 52.1676 26.82C51.8143 26.6733 51.4276 26.6 51.0076 26.6C50.5876 26.6 50.1976 26.6733 49.8376 26.82C49.4776 26.96 49.1643 27.1633 48.8976 27.43C48.6376 27.69 48.431 27.9967 48.2776 28.35C48.131 28.6967 48.0576 29.08 48.0576 29.5C48.0576 29.9133 48.131 30.2967 48.2776 30.65C48.431 31.0033 48.6376 31.3133 48.8976 31.58C49.1643 31.84 49.4776 32.0433 49.8376 32.19C50.1976 32.33 50.5876 32.4 51.0076 32.4ZM56.6363 33V26H57.2463L62.0763 32.08H61.7563V26H62.4863V33H61.8763L57.0563 26.92H57.3763V33H56.6363Z" fill="#330A48"/>
<path d="M5.10481 17.158V14.099H8.32481C8.72347 14.099 9.08381 14.0223 9.40581 13.869C9.74314 13.7003 10.0115 13.455 10.2108 13.133C10.4101 12.811 10.5098 12.4123 10.5098 11.937C10.5098 11.4617 10.4101 11.063 10.2108 10.741C10.0115 10.4037 9.74314 10.1583 9.40581 10.005C9.08381 9.83633 8.72347 9.752 8.32481 9.752H5.10481V6.693H9.03781C10.0805 6.693 11.0235 6.90767 11.8668 7.337C12.7101 7.751 13.3771 8.349 13.8678 9.131C14.3585 9.89767 14.6038 10.833 14.6038 11.937C14.6038 13.0103 14.3585 13.9457 13.8678 14.743C13.3771 15.525 12.7101 16.123 11.8668 16.537C11.0235 16.951 10.0805 17.158 9.03781 17.158H5.10481ZM1.8388 23V6.693H5.95581V23H1.8388ZM14.8767 23L21.2018 6.693H25.1808L31.4367 23H27.1358L22.4208 9.292H23.9158L19.0857 23H14.8767ZM18.7177 20.148V16.882H27.7107V20.148H18.7177ZM33.6534 23V6.693H37.7704V23H33.6534ZM36.9194 23V19.458H44.7854V23H36.9194ZM45.7929 23L52.1179 6.693H56.0969L62.3529 23H58.0519L53.3369 9.292H54.8319L50.0019 23H45.7929ZM49.6339 20.148V16.882H58.6269V20.148H49.6339Z" fill="#330A48"/>
</svg>
